<?xml version="1.0" encoding="UTF-8"?>
<svg id="food-circle" xmlns="http://www.w3.org/2000/svg" version="1.1" viewBox="0 0 172 172">
  <defs>
    <style>
      .cls-1 {
        fill: #493b32;
      }

      .cls-1, .cls-2, .cls-3 {
        stroke-width: 0px;
      }

      .cls-4 {
        stroke-width: 2px;
      }

      .cls-4, .cls-5, .cls-6, .cls-7 {
        stroke-miterlimit: 10;
      }

      .cls-4, .cls-6 {
        stroke: #f8f0dc;
      }

      .cls-4, .cls-7 {
        fill: none;
      }

      .cls-5 {
        fill: #f1edde;
        stroke-width: 3px;
      }

      .cls-5, .cls-7 {
        stroke: #f1edde;
        stroke-linecap: round;
      }

      .cls-2 {
        fill: #f7f3dd;
      }

      .cls-3, .cls-6 {
        fill: #faa139;
      }

      .cls-6 {
        stroke-width: 4px;
      }

      .cls-7 {
        stroke-width: 7px;
      }
    </style>
  </defs>
  <g>
    <circle class="cls-2" cx="86" cy="86" r="86"/>
    <path class="cls-3" d="M86,83c-34.1317749,0-64.4906006,8.6008301-83.8780518,21.9557495,8.6362915,38.3718872,42.8978882,67.0442505,83.8780518,67.0442505s75.2417603-28.6723633,83.8780518-67.0442505c-19.3874512-13.3549194-49.7462769-21.9557495-83.8780518-21.9557495Z"/>
    <path class="cls-1" d="M32,131c-.1880512-.4265442-.3160858-.8712158-.3161068-.8712921-.2531338-.9317017-.3539562-2.3792419.3161068-5.1287079,2.0625916-8.4634094,4.0670166-16.6881485,12-24,9.9439468-9.1653595,21.602211-9.9157944,25-10,14.2038269-.352005,23.6986465,7.3292313,27,10,1.3309326,1.0767136,11.4907761,9.5094299,14,22,.4745102,2.3620529.4418259,3.7043915,0,5-.7351608,2.1557922-3.2771683,6.1875153-21,9-12.3152695,1.9543457-21.0137482,1.5832214-33,1-.0000992,0-21.3723907-1.039917-24-7Z"/>
    <path class="cls-1" d="M30,140c2.866993,7.9173584,25.1354256,10.8358765,44,10,20.2332077-.8965302,37.6719284-6.1616669,40-13,.2181015-.640625,1.0238266-3.007309,0-4-1.5802994-1.5322418-6.4944229,1.2028503-8,2-12.1058655,6.4096222-29.8833694,6.8981628-34,7-6.2528534.1546936-24.415638-.3309937-35-5-1.1709137-.51651-5.5250435-2.5293274-7-1-1.0313416,1.0693665-.2138176,3.4095306,0,4Z"/>
    <path class="cls-1" d="M75.924614,91.4731598v-4.2735977c2.4672775.1011505,4.6520081-.1217651,5.075386-1.1995621.8207321-2.0893631-4.7359085-8.0067673-11-8-6.2999649.0068054-11.8239059,6.0042038-11,8,.4184532,1.0136414,2.5469589,1.1709518,5,1-.0207367,1.4910507-.0414734,2.9821091-.0622101,4.4731598"/>
  </g>
  <rect class="cls-6" x="89.6101651" y="97.3679276" width="40" height="55.637954" rx="4.4938936" ry="4.4938936" transform="translate(47.7646754 -29.284079) rotate(19.384822)"/>
  <g>
    <path class="cls-4" d="M116,106c3.8892975,1.3846893,4.838089,6.1814194,5,7,1.4410782,7.2855759-5.4717331,12.6064301-6,13-1.3045959.9719696-3.6422882,2.7136078-6,2-2.0632782-.6244965-3.0227432-2.7905731-3.6131668-4.123497-1.5757217-3.5573196-2.7559357-10.4371338,1.6131668-14.876503.3837357-.3899078,4.6112442-4.5625076,9-3Z"/>
    <path class="cls-4" d="M109,115c1.6938553-4.7511902,5.3412704-9.5906982,7-9,1.6754074.5966415,1.1982117,6.6891479,0,11-1.5212784,5.4731445-5.1629181,11.5214386-7,11-1.8087082-.513382-1.9862595-7.4286423,0-13Z"/>
    <polyline class="cls-4" points="109 127 108.236117 129.6735904 107 134"/>
    <polyline class="cls-4" points="110.7178739 127.2128456 107 133.4843793 107.9217317 126.1716825"/>
    <rect class="cls-1" x="101.9753892" y="130.1639896" width="7.1173274" height="14" rx="1.8569373" ry="1.8569373" transform="translate(51.5089324 -27.2521979) rotate(19.384822)"/>
  </g>
  <path class="cls-7" d="M48,110c-.9692955,1.471756-2.0944138,3.4792252-3,6-.8997421,2.504509-1.3095627,4.7551956-1.5,6.5"/>
  <circle class="cls-5" cx="54.5" cy="102.5" r="2"/>
</svg>