<?xml version="1.0" encoding="UTF-8"?>
<svg id="friend-circle" xmlns="http://www.w3.org/2000/svg" version="1.1" viewBox="0 0 172 172">
  <defs>
    <style>
      .cls-1 {
        fill: #f9cb44;
      }

      .cls-1, .cls-2, .cls-3, .cls-4 {
        stroke-width: 0px;
      }

      .cls-5 {
        stroke-width: 3px;
      }

      .cls-5, .cls-6, .cls-7 {
        fill: none;
        stroke-linecap: round;
        stroke-linejoin: round;
      }

      .cls-5, .cls-7 {
        stroke: #f0f0e0;
      }

      .cls-2 {
        fill: #f0f0e0;
      }

      .cls-6 {
        stroke: #493b32;
        stroke-width: 5px;
      }

      .cls-3 {
        fill: #ec5f4e;
      }

      .cls-4 {
        fill: #fbf7c8;
      }

      .cls-7 {
        stroke-width: 2px;
      }
    </style>
  </defs>
  <circle class="cls-4" cx="86" cy="86" r="86"/>
  <path class="cls-1" d="M86,81c-34.9559326,0-65.8000488,8.9661865-84.1792603,22.6315918,8.6903076,41.7650146,47.2865601,71.5435181,90.9329224,68.1075439,38.9760132-3.0683594,69.8245239-31.6687012,77.4396362-68.097229-18.3775635-13.6712036-49.2285156-22.6419067-84.1932983-22.6419067Z"/>
  <g id="guy">
    <path class="cls-3" d="M75,146c-2.8237305.2602539-3.3889771,3.2999268-6,4-2.0545044.5508423-3.5079956-.8118286-6-2-4.8037109-2.2904663-11.5217285-2.5237427-16,0-4.4893799,2.5299683-6.1796875,7.519104-6.8018188,10.1001587,8.1583862,5.0635986,17.2009277,8.7841187,26.8018188,10.8918457v-10.9920044c1.0925903.0389404,2.9968262-.0385742,5-1,4.5519409-2.1847534,7.4673462-7.9031372,6-10-.8223877-1.1752319-2.880127-1.0110474-3-1Z"/>
    <path class="cls-3" d="M53,101c8.0814285.3725128,13.2982712,5.3323059,15,7,8.8340759,8.6573792,12.6200333,25.4216766,5,34-5.2143555,5.8701019-14.0290794,5.9475403-20,6-5.6602516.0497284-12.0735321.0769806-17-4-9.2756653-7.6762238-9.1761208-27.4739075,1-37,6.7160187-6.2870102,15.5163651-6.0222931,16-6Z"/>
    <path class="cls-3" d="M76,128c1.1208267-.5787582,2.8139725-.8119278,4,0,2.0617676,1.411438,2.0029373,5.5785065,0,8-1.5429153,1.8653412-4.5183334,3.0319672-6,2-2.1985245-1.53125-1.5137634-8.1856232,2-10Z"/>
    <path class="cls-3" d="M29.6588069,128.3856072c-1.1208267-.5787582-2.8139725-.8119278-4,0-2.0617676,1.411438-2.0029373,5.5785065,0,8,1.5429153,1.8653412,4.5183334,3.0319672,6,2,2.1985245-1.53125,1.5137634-8.1856232-2-10Z"/>
    <path class="cls-2" d="M62,134c.8299599,4.5129395-2.296627,8.5429382-6,9-3.9331741.4854126-8.1506882-3.1044769-8-8"/>
    <circle class="cls-2" cx="45.5" cy="127.5" r="3.5"/>
    <circle class="cls-2" cx="64.9975794" cy="127.3489384" r="3.5"/>
    <polyline class="cls-7" points="41 119 46 113 51.472057 119 56.8547818 113 62.2375066 119 66.3386302 113"/>
  </g>
  <g id="cat">
    <path class="cls-3" d="M132,154c-1.7772217-6.6124878-8.729126-12.3309937-14-11-2.6204224.6616821-4.0438843,2.8684692-6,6-1.1792603,1.8880005-9.1262207,14.5090332-5.2780151,19.6516724,9.3172607-2.3458252,17.9795532-6.2003174,25.7529907-11.2628174-.0250854-1.515564-.3013916-2.743103-.4749756-3.388855Z"/>
    <path class="cls-3" d="M144,127.5c.2484283,1.4645844,1.5084076,8.8925476-3,14.5-4.6948395,5.8393402-12.6000519,5.9172363-21,6-8.2965927.0817413-15.23349.1501007-20-5-5.2918777-5.7177429-4.2427521-13.9068909-4-15.5,1.5594406-10.2340546,11.3241959-20.500679,24-20.5,12.8297729.0006866,22.3070068,10.5192795,24,20.5Z"/>
    <path class="cls-3" d="M144,127.5l-15-39.5c-2,6.6666641-4,13.3333359-6,20"/>
    <polyline class="cls-3" points="96.2065848 129.1451112 109.7715588 89.1295958 116.4622138 107.9004035"/>
    <path class="cls-5" d="M124,136c-.2241592.2988739-2.3249969,3-6,3-.3735962,0-3.7949982-.0599976-6-3"/>
    <circle class="cls-2" cx="108.5" cy="127.5" r="3.5"/>
    <circle class="cls-2" cx="128.5" cy="127.5" r="3.5"/>
  </g>
  <g>
    <path class="cls-6" d="M83.3778491,79.5021322l.2443019,6.9957356"/>
    <path class="cls-6" d="M95.0781844,82.2596674c-1.007591,2.1045704-2.0151787,4.209134-3.0227697,6.3137044"/>
    <path class="cls-6" d="M72.0554147,82.2596674c1.007591,2.1045704,2.0151787,4.209134,3.0227697,6.3137044"/>
    <path class="cls-6" d="M103.0092159,89.9096088l-4.8848328,5.0138217"/>
    <path class="cls-6" d="M65.1243831,90.9096088c1.6282794,1.6712757,3.2565534,3.342546,4.8848328,5.0138217"/>
  </g>
</svg>