<?xml version="1.0" encoding="UTF-8"?>
<svg id="purchase-circle" xmlns="http://www.w3.org/2000/svg" version="1.1" viewBox="0 0 172 172">
  <defs>
    <style>
      .cls-1 {
        fill: #43a65c;
      }

      .cls-1, .cls-2, .cls-3, .cls-4, .cls-5, .cls-6, .cls-7, .cls-8, .cls-9 {
        stroke-width: 0px;
      }

      .cls-2 {
        fill: #78c591;
      }

      .cls-3 {
        fill: #8fd3a0;
      }

      .cls-4 {
        fill: #fca02d;
      }

      .cls-5 {
        fill: #e34839;
      }

      .cls-6 {
        fill: #fefafd;
      }

      .cls-7 {
        fill: #e0f5e6;
      }

      .cls-8 {
        fill: #20724a;
      }

      .cls-9 {
        fill: #56413f;
      }
    </style>
  </defs>
  <circle class="cls-7" cx="86" cy="86" r="86"/>
  <path class="cls-3" d="M86,81c-34.9559326,0-65.8000488,8.9661865-84.1792603,22.6315918,8.6903076,41.7650146,47.2865601,71.5435181,90.9329224,68.1075439,38.9760132-3.0683594,69.8245239-31.6687012,77.4396362-68.097229-18.3775635-13.6712036-49.2285156-22.6419067-84.1932983-22.6419067Z"/>
  <g>
    <path class="cls-2" d="M1.8207397,103.6315918c.6702881,3.2213745,1.5389404,6.3614502,2.5536499,9.430481l15.8144531-19.7877197c-6.9912109,3.0136719-13.1773071,6.4977417-18.368103,10.3572388Z"/>
    <path class="cls-2" d="M8.5844727,123.4571533c2.4934692,5.1506958,5.475647,10.0042725,8.8921509,14.50177l44.3421021-55.482605c-8.5695801,1.0626221-16.7181396,2.6728516-24.2872925,4.7612915l-28.9469604,36.2195435Z"/>
    <path class="cls-2" d="M86,81c-3.6196899,0-7.1921997.1015015-10.7144775.2890625l-51.335083,64.2325439c3.7050781,3.8585205,7.7597046,7.364624,12.1116333,10.4733887l59.7462769-74.756897c-3.2280273-.1570435-6.4995728-.2380981-9.8083496-.2380981Z"/>
    <path class="cls-2" d="M44.3769531,161.2540283c4.8164673,2.6702881,9.9088135,4.8798828,15.2121582,6.5939331l66.1369019-82.7531738c-5.7937622-1.2505493-11.8623657-2.2337036-18.1452026-2.9239502l-63.2038574,79.0831909Z"/>
    <path class="cls-2" d="M128.0309448,161.0388794l40.4500732-50.6127319c.6600342-2.2275391,1.2327271-4.4901733,1.7122803-6.7842407-3.3398438-2.4844971-7.0964966-4.8114014-11.210022-6.9597778l-59.3251953,74.2301025c10.2122803-1.6309814,19.7630005-5.0429688,28.3728638-9.8733521Z"/>
    <path class="cls-2" d="M142.9038086,89.8456421c-.0394897-.0135498-.0783081-.0275269-.1177979-.0410156-1.2741089-.4368896-2.5704346-.8580933-3.8845825-1.2658691-.1409302-.0437012-.2833252-.0861816-.4246216-.1295166-1.3011475-.399353-2.6177368-.7871094-3.9562988-1.1569824-.0001831-.000061-.0004883-.0001221-.0006714-.0001831l-66.2632446,82.9112549c.5882568.1237793,1.1803589.2357788,1.772583.347229.4498901.0847778.9014893.1640015,1.3535767.2416992,1.0130005.173645,2.0314331.3290405,3.0551758.4663696.364563.0491333.7287598.0993652,1.0946045.1438599.6984253.0844727,1.3984375.1636963,2.1014404.2310791.0106812.0010376.0214233.001709.0321045.0027466,1.513916.1445923,3.0385742.2474365,4.5718994.3119507.1495972.0063477.2994995.0114136.4492798.0170288,1.5258179.0562744,3.0598145.0756836,4.6022949.0512085l63.3064575-79.2116089c-2.470459-1.0322266-5.0375977-2.0063477-7.6921997-2.9192505Z"/>
  </g>
  <polyline class="cls-8" points="82 80 88.0354694 86 76.2747782 96.9756132 74 99 73 98 82 80"/>
  <path class="cls-8" d="M87,109c-1.0246582-5.6326294-6.1049194-10.1485596-8-11-1.6921997-.7603149-2.9229736-1.3132324-4-1-.1968994.057251-.7508545.2487793-1,0-.2683105-.2679443-.0332642-.8969116,0-1,.4234009-1.3128052-2.8931885-7.2391357-9-10-6.2272339-2.8153687-13.8307495-1.6496582-19,2-4.0614624,2.8674927-5.9707642,6.8099365-8,11-2.1749878,4.4909668-1.289856,4.5112915-4,11-2.958374,7.0830078-6.8363647,13.6843262-7,14,.1063843.057251,6.9229126,4.3966675,14.6248169,7.1436157,2.5936279.9250488,4.8153076,1.5010986,6.3751831,1.8563843.3883667.0314331,10.8421021,2.3057251,18,1,.1188965-.0216675.2376099-.0513916.3564453-.0753784-4.7064209-.5657959-8.3564453-4.5657349-8.3564453-9.4246216,0-5.2467041,4.2532959-9.5,9.5-9.5s9.5,4.2532959,9.5,9.5c0,2.1150513-.699707,4.0620117-1.8685303,5.640625,7.5728149-5.0497437,13.2028809-13.8057861,11.8685303-21.140625Z"/>
  <path class="cls-4" d="M128,95c-1.0913391-1.0329437-.4384384-2.4447556-1-4-.9113007-2.5238495-4.4594955-3.8706512-7-4-5.0932388-.2593155-9.7910156,4.1885605-10,8-.1280975,2.336235,1.5059433,3.0537567,1,5-.259613.9986725-1.2458115,2.9484024-8,5-5.3899002,1.6371994-9.4419327,1.8171616-11,2-9.3757401,1.1002579-20.2460175,13.0780106-20,24,.3934402,17.466568,29.0432816,24.5410461,31,25,5.7343216,1.3450012,18.222084,4.2740479,26-3,7.0805817-6.6218872,6.1173859-17.8269653,6-19-1.3536682-13.5280075-7.999939-21.9999237-8-22-.538559-.6864929-2.8737183-3.5961609-2-5,.8004837-1.286171,3.5210876-.0657349,6-2,.2800598-.2185287,1.5323486-1.2383499,2-3,.5921173-2.2305603-.263031-4.9371414-2-6-1.2557068-.7683716-2.0874023-.1362381-3-1Z"/>
  <path class="cls-5" d="M105,101c1.1569214-.7383499,2.6270447.3389359,7,2,1.9707947.7486038,4.0027618,1.3251114,6,2,7.2086105,2.4358673,7.8470383,3.3601685,8,4,.0979919.4098892-.0069885.5259857,0,1,.0097733.6630554,6.941452,5.7863464,10,10,.2978973.410408,3.495163,4.9000626,2,7-.5861359.8232346-1.940567,1.3454132-3,1-1.8261871-.5954056-2.1255798-3.5567093-5-8-.2794952-.4320526-.7191772-1.0880966-1-1-.3882141.121788-.2277985,1.5900803,0,4,.5475616,5.7927399.486145,6.4650421,0,7-1.0577087,1.1639252-3.6822128,1.1894073-5,0-.9213715-.831604-.6157608-1.7262268-1-7-.1265869-1.7373886-.042923-.0367813-1-7-.0929565-.6763077-.2479401-1.8141937-1-3-.7151794-1.127655-1.6195755-1.7456284-2-2-4.154129-2.7776337-13.411087-2.3855743-15-6-.6261444-1.4243546-.0105667-3.3550568,1-4Z"/>
  <path class="cls-9" d="M102.5156718,145.2380711l-7.1785296-6.48009-9.6428799.7332942c-.7036975.0535128-1.2090103-.6644621-.9211465-1.3088131l3.9446442-8.8296453-3.677218-8.9443234c-.2683482-.6527197.2583363-1.3551672.9601053-1.2805079l9.6164538,1.0230691,7.3702342-6.2611901c.5378492-.4569158,1.3686709-.1730773,1.5145242.5174157l1.9986511,9.4619367,8.2322732,5.0746951c.6007573.3703303.5875489,1.2481996-.0240779,1.6002884l-8.3812194,4.8247294-2.2824095,9.3975241c-.1665608.6857924-1.0055458.9445071-1.5294052.4716169Z"/>
  <polygon class="cls-6" points="146 142.8775842 143.5488142 135.4511858 136.1224158 133 143.5488142 130.5488142 146 123.1224158 148.4511858 130.5488142 155.8775842 133 148.4511858 135.4511858 146 142.8775842"/>
  <polygon class="cls-6" points="67.5612079 153.8775842 65.4670676 147.5329324 59.1224158 145.4387921 65.4670676 143.3446518 67.5612079 137 69.6553482 143.3446518 76 145.4387921 69.6553482 147.5329324 67.5612079 153.8775842"/>
  <polygon class="cls-1" points="134.0612079 115.8775842 132.835615 112.164385 129.1224158 110.9387921 132.835615 109.7131992 134.0612079 106 135.2868008 109.7131992 139 110.9387921 135.2868008 112.164385 134.0612079 115.8775842"/>
  <polygon class="cls-1" points="101.0612079 100.8775842 99.3393022 95.6606978 94.1224158 93.9387921 99.3393022 92.2168864 101.0612079 87 102.7831136 92.2168864 108 93.9387921 102.7831136 95.6606978 101.0612079 100.8775842"/>
  <polygon class="cls-1" points="79.0612079 158.8775842 77.835615 155.164385 74.1224158 153.9387921 77.835615 152.7131992 79.0612079 149 80.2868008 152.7131992 84 153.9387921 80.2868008 155.164385 79.0612079 158.8775842"/>
</svg>