<?xml version="1.0" encoding="UTF-8"?>
<svg id="purchase-circle" xmlns="http://www.w3.org/2000/svg" version="1.1" viewBox="0 0 172 172">
  <defs>
    <style>
      .cls-1 {
        fill: #b38c56;
      }

      .cls-1, .cls-2, .cls-3, .cls-4, .cls-5, .cls-6, .cls-7 {
        stroke-width: 0px;
      }

      .cls-2 {
        fill: #f9eac9;
      }

      .cls-3 {
        fill: #d6a46f;
      }

      .cls-4 {
        fill: #4b5185;
      }

      .cls-5 {
        fill: #c99b5f;
      }

      .cls-6 {
        fill: #faf7d2;
      }

      .cls-7 {
        fill: #be9258;
      }
    </style>
  </defs>
  <circle class="cls-2" cx="86" cy="86" r="86"/>
  <path class="cls-3" d="M86,81c-34.9559326,0-65.8000488,8.9661865-84.1792603,22.6315918,8.6903076,41.7650146,47.2865601,71.5435181,90.9329224,68.1075439,38.9760132-3.0683594,69.8245239-31.6687012,77.4396362-68.097229-18.3775635-13.6712036-49.2285156-22.6419067-84.1932983-22.6419067Z"/>
  <g>
    <polygon class="cls-7" points="35 106 26.4505552 106 23 112 23 117.2225805 33.5741359 117.2225805 37 114 35 106"/>
    <path class="cls-7" d="M169.5697632,106h-6.4759521l-5.093811,9,1.6939087,2.2225952,6.5341187-.1990967c.9993286-2.5793457,1.8638916-5.2208252,2.6137085-7.9072876l.7280273-3.1162109Z"/>
    <polygon class="cls-7" points="130 105 132 110 131 114.470288 128 116 120.999899 116 119 108 121.8093968 105 130 105"/>
    <path class="cls-7" d="M47.3355713,86l2.4285278,4h11.2359009l6-5-1.4729004-2.9458008c-6.2246704.6469116-12.2418213,1.5823364-17.9976807,2.7786865l-.1938477,1.1671143Z"/>
    <polygon class="cls-7" points="55 135 49 134 47.3355986 135.8410301 47.3355986 146 54 144 55 135"/>
    <path class="cls-7" d="M92.7536621,171.7391357c3.8695068-.3046265,7.6547241-.8710327,11.3492432-1.6616211l-4.1029053-9.0775146-7,2-4.0684204,8.9505615c1.2695923-.0441895,2.5432129-.1107178,3.8220825-.2114258Z"/>
    <path class="cls-7" d="M151.5664673,141.6292725l-2.0734863-4.8754272-6.0516357-4.2460938-9.4413452,2.3206177v6.1716309l8.0561523,10.2111206c3.4190674-2.9443359,6.5978394-6.1486206,9.5103149-9.5818481Z"/>
  </g>
  <g>
    <path class="cls-5" d="M110.0772095,82.463623c-17.0817261-.840271-36.7537231.1896362-57.0772095,8.536377-11.2662964,4.6269531-19.1680908,9.9428101-34,11-5.5706787.3970337-10.4369507.0722656-14.2583008-.4217529-1.0026855.6729126-1.9821777,1.3553467-2.9209595,2.0533447.5113525,2.4575195,1.1348877,4.8696289,1.8482666,7.2398071,16.7624512-.7324829,30.0335083-3.4243164,39.3309937-5.8713989,29.2520142-7.6992188,38.1751099-17.9520874,58-15,5.5392456.8248291,12.5360718,2.2876587,24,2,6.6273193-.1663208,13.8863525-.9512939,18.4413452-1.9672241-9.9906006-3.4786987-21.2539673-6.0744629-33.3641357-7.5691528Z"/>
    <path class="cls-5" d="M150.2111206,92.6035156c-11.4352417,2.6807251-19.970459,7.8258667-25.2111206,10.3964844-27.4174805,13.4485474-39.6212158-7.2937012-69,7-7.8670654,3.8275757-13.1742554,8.3228149-25,11-8.9425049,2.0244751-16.9252319,1.947937-22.958313,1.3552856,1.7770996,3.8099365,3.8346558,7.4522705,6.1231689,10.9230957,5.2976074.1102905,12.1786499-.2980347,19.835144-2.2783813,18.2485352-4.7199707,21.9832764-13.4734497,39-16,9.7265015-1.4441528,8.9924927,1.3435059,27,1,9.1939697-.175415,20.2796021-.3868408,33-4,11.6690674-3.3145142,22.7801514-8.942749,29.2565308-13.5253296-3.6945801-2.1195068-7.7236938-4.083252-12.0454102-5.8711548Z"/>
    <path class="cls-5" d="M169.8967285,104.9291382c-6.5855713,5.867981-16.1722412,12.6208496-28.8967285,16.0708618-8.5824585,2.3269653-12.7306519,1.5618896-28,2-14.8123169.4249878-33.8598633,1.0604858-54,6-8.1038818,1.9875488-30.7750854,7.5510864-35.236145,16.3291016,2.3587646,2.4717407,4.8493652,4.8126831,7.4810791,6.9864502,3.8165283-1.8475952,8.5718994-5.4074707,13.7550659-8.3155518,9.0559692-5.0809326,16.4129028-6.4575806,30-9,17.1281128-3.2050171,31.7109985-2.5258179,43-2,12.5101318.5827026,12.8296509,1.5448608,18,1,12.1489258-1.2803345,21.9656372-7.8135376,29.3757324-14.8919067,1.9025269-4.5515137,3.4199829-9.291687,4.5209961-14.1789551Z"/>
    <path class="cls-5" d="M129,145c-12.642334,1.8551025-15.737793-.9749756-35,0-18.7888794.9509888-30.1260376,4.3665771-35,6-6.0571289,2.0299072-13.8656616,5.2400513-18.3726807,8.0601807,3.4658813,2.1565552,7.0970459,4.0603027,10.8578491,5.7124023,6.836792-.8253174,11.6218872-3.2001343,15.5148315-4.772583,7.5077515-3.0325928,14.005188-3.6883545,27-5,23.2839355-2.3501587,29.6712036,3.3493652,44-2,1.4074097-.5254517,2.7158203-1.107605,3.9660645-1.7115479,5.3866577-4.6259155,10.1843872-9.8945923,14.2768555-15.6842651-6.4796753,3.6203613-15.7196045,7.704834-27.2429199,9.395813Z"/>
    <path class="cls-5" d="M110.2788696,168.5233765c3.7155151-1.0889893,7.3138428-2.4298096,10.7907715-3.9825439-4.3694458-.5689087-9.0821533-1.3831177-14.0696411-2.5408325-7.0614624-1.6391602-8.6298218-2.5758667-14-4-8.739502-2.317688-21.1881104-5.6189575-34-2-5.3271484,1.5047607-9.935791,3.986145-13.013916,6.1176758,1.3840332.7293701,2.7838135,1.4312134,4.2094727,2.0856323,1.3885498-.3613281,2.9787598-.7639771,4.8044434-1.2033081,7.4909058-1.8025513,11.2363281-2.7037964,15-3,5.8443604-.4599609,9.7539062.5845947,19,3,5.4186401,1.4155273,11.9095459,3.1032104,21.2788696,5.5233765Z"/>
  </g>
  <polygon class="cls-4" points="88 77 116 91 123 115 119 127 119 142 110 153 100 156 67 155 52 146 50 106 62 88 88 77"/>
  <path class="cls-6" d="M82.5,115.5c.6403732-.0684128.7783737,1.2456741,2,2,1.6671143,1.0294037,4.4453735.4563446,6-1,2.3866119-2.2357407,2.0028076-6.6593857,0-9-2.7852173-3.2549973-8.735199-2.5209732-12,0-4.7143021,3.6402359-4.1962738,11.2893829-2,16,.3390884.7272873,2.9904099,6.187851,9,8,7.4746323,2.2539215,15.4314117-2.4821167,19-8,5.889946-9.107254,1.9163361-23.5580826-8-30-9.5515366-6.2049332-21.7384872-3.1096878-29,3-9.8798828,8.3127289-9.1240883,20.9287109-9,23,.4850769,8.0970459,4.6282578,18.6690369,10,19,3.6651459.2258148,8.173378-4.2991943,8-8-.0698547-1.4911346-.8647003-2.1000214-2-4-.1773605-.2968216-3.8579178-6.585022-3-13,.1595688-1.1931534,1.0758972-8.0448532,7-11,4.3068924-2.1484299,10.2747345-1.7455521,14,2,.5206604.5234909,4.5585251,4.7230148,3,10-1.2638855,4.2793732-5.419693,6.9028702-9,7-.4129105.0112-3.9927979.1083221-5-2-.7551956-1.5808105.1701202-3.9113388,1-4Z"/>
  <path class="cls-6" d="M115.1660437,132.7775956l-1.0901906,5.4635673,1.0115934,5.4270665c.0679949.3647838-.176279.7144601-.5421846.7761333l-5.6426283.9510621-4.9733645,2.8903762c-.3346085.1944648-.7639513.0625741-.9316797-.2862047l-2.3517966-4.8903871-4.0560798-3.6048647c-.2892766-.2570963-.2981361-.706153-.0192253-.9744591l4.1455165-3.987897,2.4646988-5.164207c.1598275-.3348816.563159-.473687.8952251-.3080893l4.9403099,2.4636782,5.5528421.4527997c.3955932.0322582.6746306.4021925.5969637.7914255Z"/>
  <polygon class="cls-6" points="91.5374381 141.1365607 93.1713463 145.19328 96.8634393 147.5374381 92.80672 149.1713463 90.4625619 152.8634393 88.8286537 148.80672 85.1365607 146.4625619 89.19328 144.8286537 91.5374381 141.1365607"/>
  <path class="cls-1" d="M151.319397,141.920105l-1.0284424-3.289917-14.2271118,4.9857178,1.8809204,2.3840942,10.5028687-.8769531c.9857788-1.0420532,1.9391479-2.1134033,2.8717651-3.2029419Z"/>
  <polyline class="cls-1" points="102.4897666 166.5085095 100 161 93 162 92.6571583 163.7542548"/>
  <polyline class="cls-1" points="47.3355986 142.7532311 47.3355986 135.8410301 49 134 51.4 134 51.7376338 140.7526761"/>
  <polyline class="cls-1" points="24.8502702 108.7826566 27 106 35 106 35 106.9085995"/>
  <polyline class="cls-1" points="129.0369621 86 130.3807184 91.7412258 143.0804186 90.1100879"/>
  <polyline class="cls-1" points="131.4580128 112.4228388 132 110.5 130 105 121.8093968 105 120.883608 107.7437988 123 114.3091072"/>
  <polyline class="cls-1" points="159.1062964 113.0453403 158 115 158.5531482 117.2225952 162.2565308 117.1445113 167.6591946 113.0453403 169.5697632 106 168.6705808 106"/>
</svg>