<?xml version="1.0" encoding="UTF-8"?>
<svg id="Layer_1" data-name="Layer 1" xmlns="http://www.w3.org/2000/svg" version="1.1" viewBox="0 0 256 256">
  <defs>
    <style>
      .cls-1 {
        stroke-width: 3px;
      }

      .cls-1, .cls-2 {
        stroke: #5879af;
      }

      .cls-1, .cls-2, .cls-3 {
        fill: none;
        stroke-miterlimit: 10;
      }

      .cls-4 {
        fill: #5879af;
      }

      .cls-4, .cls-5 {
        stroke-width: 0px;
      }

      .cls-2 {
        stroke-width: 4px;
      }

      .cls-5 {
        fill: #ebeebf;
      }

      .cls-3 {
        stroke: #ebeebf;
        stroke-width: 2px;
      }
    </style>
  </defs>
  <circle class="cls-4" cx="128" cy="128" r="126"/>
  <circle class="cls-5" cx="128" cy="128" r="76.5"/>
  <circle class="cls-3" cx="128" cy="128" r="120"/>
  <g>
    <path class="cls-5" d="M129.6,15.2l2.9,8.8h9.3c2,0,2.8,2.6,1.2,3.8l-7.5,5.5,2.9,8.8c.6,1.9-1.6,3.5-3.2,2.3l-7.5-5.5-7.5,5.5c-1.6,1.2-3.8-.4-3.2-2.3l2.9-8.8-7.5-5.5c-1.6-1.2-.8-3.8,1.2-3.8h9.3l2.9-8.8c.6-1.9,3.3-1.9,4,0h-.2Z"/>
    <path class="cls-5" d="M181.7,40.2l-8.8,2.9v9.3c0,2-2.6,2.8-3.8,1.2l-5.5-7.5-8.8,2.9c-1.9.6-3.5-1.6-2.3-3.2l5.5-7.5-5.5-7.5c-1.2-1.6.4-3.8,2.3-3.2l8.8,2.9,5.5-7.5c1.2-1.6,3.8-.8,3.8,1.2v9.3l8.8,2.9c1.9.6,1.9,3.3,0,4v-.2Z"/>
    <path class="cls-5" d="M206.4,47.1l-1.9,9.1,8,4.6c1.7,1,1.2,3.7-.8,3.9l-9.2,1-1.9,9.1c-.4,2-3.1,2.3-3.9.4l-3.8-8.5-9.2,1c-2,.2-3.1-2.3-1.6-3.6l6.9-6.2-3.8-8.5c-.8-1.8,1.2-3.6,2.9-2.6l8,4.6,6.9-6.2c1.5-1.3,3.8,0,3.4,2h0Z"/>
    <path class="cls-5" d="M73.6,40.2l8.8,2.9v9.3c0,2,2.6,2.8,3.8,1.2l5.5-7.5,8.8,2.9c1.9.6,3.5-1.6,2.3-3.2l-5.5-7.5,5.5-7.5c1.2-1.6-.4-3.8-2.3-3.2l-8.8,2.9-5.5-7.5c-1.2-1.6-3.8-.8-3.8,1.2v9.3l-8.8,2.9c-1.9.6-1.9,3.3,0,4v-.2Z"/>
    <path class="cls-5" d="M48.4,47.1l1.9,9.1-8,4.6c-1.7,1-1.2,3.7.8,3.9l9.2,1,1.9,9.1c.4,2,3.1,2.3,3.9.4l3.8-8.5,9.2,1c2,.2,3.1-2.3,1.6-3.6l-6.9-6.2,3.8-8.5c.8-1.8-1.2-3.6-2.9-2.6l-8,4.6-6.9-6.2c-1.5-1.3-3.8,0-3.4,2h0Z"/>
  </g>
  <path class="cls-4" d="M160.7,91c18.2,23.9,19,53.1,5,69-12.4,14.1-32.9,14-37,14s-26.1,0-39-16c-13.3-16.4-12.1-44.1,5-66l-4-22,21,6c2.8-1.3,8.1-3.2,15-3,5.8.2,10.3,1.8,13,3l25.6-6-4.6,21Z"/>
  <g>
    <line class="cls-2" x1="139" y1="186" x2="139" y2="166"/>
    <line class="cls-1" x1="143.1" y1="168.9" x2="128.9" y2="183.1"/>
    <line class="cls-1" x1="134.9" y1="168.9" x2="149.1" y2="183.1"/>
  </g>
  <g>
    <line class="cls-2" x1="120" y1="186" x2="120" y2="166"/>
    <line class="cls-1" x1="124.1" y1="168.9" x2="109.9" y2="183.1"/>
    <line class="cls-1" x1="115.9" y1="168.9" x2="130.1" y2="183.1"/>
  </g>
  <circle class="cls-5" cx="150.8" cy="99.2" r="7.3"/>
  <circle class="cls-5" cx="105.8" cy="99.2" r="7.3"/>
  <path class="cls-5" d="M129.6,92.3l3.6,5.6,5.6,3.6c1.1.7,1.1,2.4,0,3.1l-5.6,3.6-3.6,5.6c-.7,1.1-2.4,1.1-3.1,0l-3.6-5.6-5.6-3.6c-1.1-.7-1.1-2.4,0-3.1l5.6-3.6,3.6-5.6c.7-1.1,2.4-1.1,3.1,0Z"/>
  <g>
    <path class="cls-5" d="M128.4,145.4l8.4-11c.3-.4,0-.9-.4-.9h-16.7c-.5,0-.7.5-.4.9l8.4,11c.2.3.7.3.9,0h-.2Z"/>
    <path class="cls-5" d="M151.4,145.4l8.4-11c.3-.4,0-.9-.4-.9h-16.7c-.5,0-.7.5-.4.9l8.4,11c.2.3.7.3.9,0h-.2Z"/>
    <path class="cls-5" d="M106.4,145.4l8.4-11c.3-.4,0-.9-.4-.9h-16.7c-.5,0-.7.5-.4.9l8.4,11c.2.3.7.3.9,0h-.2Z"/>
    <path class="cls-5" d="M140.4,159.4l8.4-11c.3-.4,0-.9-.4-.9h-16.7c-.5,0-.7.5-.4.9l8.4,11c.2.3.7.3.9,0h-.2Z"/>
    <path class="cls-5" d="M117.4,159.4l8.4-11c.3-.4,0-.9-.4-.9h-16.7c-.5,0-.7.5-.4.9l8.4,11c.2.3.7.3.9,0h-.2Z"/>
  </g>
  <g>
    <g>
      <path class="cls-5" d="M137,228c1.2-2.2,6-1.8,9-1,7.5,2.1,13.6,10.3,12,13-1.7,2.8-12.4,1.1-18-5-.6-.7-4.2-4.7-3-7Z"/>
      <path class="cls-5" d="M137,222c-.2-.2-.9-1.2,0-4,.7-2.1,11.2-11.6,12-11,2.4,1.6,0,12.3-6,15-1.7.8-4.8,1.4-6,0Z"/>
    </g>
    <g>
      <path class="cls-5" d="M163.5,223c.1-2.5,4.7-4.2,7.7-4.7,7.7-1.3,16.7,3.5,16.4,6.6-.3,3.3-10.7,6.2-18.4,3.2-.8-.3-5.8-2.4-5.7-5h0Z"/>
      <path class="cls-5" d="M163,217.8c-.3-.1-1.3-.8-1.4-3.7-.4-6.8,4.6-15.2,7.2-14.6,2.8.7,4.5,11.4-.2,16.2-1.3,1.4-4,3-5.6,2.2h0Z"/>
    </g>
    <g>
      <path class="cls-5" d="M190.9,207.5c-.6-2.3,3.2-5.3,5.8-6.6,6.8-3.4,16.5-1.5,17.1,1.5.6,3.1-8.2,8.8-16.2,8.1-.9,0-6.1-.6-6.7-3.1h0Z"/>
      <path class="cls-5" d="M188.3,204.6c-.3,0-1.4-.3-2.6-2.9-2.7-6.1-1.2-15.4,1.5-15.8,2.7-.4,8,8.8,5.5,14.7-.7,1.7-2.6,4.2-4.3,3.9h0Z"/>
    </g>
    <g>
      <path class="cls-5" d="M208.3,188.2c-.9-2,1.9-5.2,4.1-6.8,5.5-4.2,14.4-4.1,15.5-1.5,1.1,2.7-5.8,9.2-13.1,9.9-.8,0-5.5.5-6.5-1.6h0Z"/>
      <path class="cls-5" d="M205.5,186.1c-.3,0-1.3,0-2.8-2.1-3.4-4.9-3.6-13.5-1.3-14.2,2.4-.8,8.6,6.5,7.3,12.2-.4,1.6-1.6,4.1-3.2,4.2h0Z"/>
    </g>
    <g>
      <path class="cls-5" d="M220.6,163c-1.2-1.7.9-5.2,2.6-7.1,4.3-4.9,12.7-6.4,14.2-4.2,1.5,2.3-3.8,9.7-10.4,11.6-.7.2-5.1,1.4-6.3-.3h-.1Z"/>
      <path class="cls-5" d="M217.6,161.5c-.2,0-1.2.2-3-1.5-4.1-4-5.8-11.9-3.8-13,2.1-1.2,9.2,4.5,9,10,0,1.6-.7,4.1-2.2,4.5Z"/>
    </g>
    <g>
      <path class="cls-5" d="M228.2,137c-1.6-1-1.1-4.6-.3-6.8,1.9-5.6,8.4-9.8,10.4-8.5,2,1.4.2,9.4-4.6,13.4-.5.4-3.7,3-5.4,1.9h0Z"/>
      <path class="cls-5" d="M225.1,136.9c-.2.1-.9.6-3-.2-4.8-1.9-9-7.9-7.8-9.6,1.3-1.7,9.3.5,11,5.2.5,1.3.8,3.7-.3,4.5h.1Z"/>
    </g>
    <g>
      <path class="cls-5" d="M226.3,112.2c-1.6-.5-1.9-3.7-1.7-5.7.5-5.2,5.1-10,7.1-9.3,2,.8,2.1,7.9-1.2,12.3-.4.5-2.6,3.3-4.2,2.8h0Z"/>
      <path class="cls-5" d="M223.7,112.7c-.1,0-.7.7-2.6.5-4.5-.6-9.3-4.9-8.5-6.5.8-1.7,8-1.4,10.4,2.2.7,1,1.5,3,.7,3.9h0Z"/>
    </g>
  </g>
  <g>
    <g>
      <path class="cls-5" d="M118.6,228c-1.2-2.2-6-1.8-9-1-7.5,2.1-13.6,10.3-12,13,1.7,2.8,12.4,1.1,18-5,.6-.7,4.2-4.7,3-7Z"/>
      <path class="cls-5" d="M118.6,222c.2-.2.9-1.2,0-4-.7-2.1-11.2-11.6-12-11-2.4,1.6,0,12.3,6,15,1.7.8,4.8,1.4,6,0Z"/>
    </g>
    <g>
      <path class="cls-5" d="M92.1,223c0-2.5-4.7-4.2-7.7-4.7-7.7-1.3-16.7,3.5-16.4,6.6.3,3.3,10.7,6.2,18.4,3.2.8-.3,5.8-2.4,5.7-5h0Z"/>
      <path class="cls-5" d="M92.6,217.8c.3-.1,1.3-.8,1.4-3.7.4-6.8-4.6-15.2-7.2-14.6-2.8.7-4.5,11.4.2,16.2,1.3,1.4,4,3,5.6,2.2h0Z"/>
    </g>
    <g>
      <path class="cls-5" d="M64.6,207.5c.6-2.3-3.2-5.3-5.8-6.6-6.8-3.4-16.5-1.5-17.1,1.5-.6,3.1,8.2,8.8,16.2,8.1.9,0,6.1-.6,6.7-3.1h0Z"/>
      <path class="cls-5" d="M67.3,204.6c.3,0,1.4-.3,2.6-2.9,2.7-6.1,1.2-15.4-1.5-15.8-2.7-.4-8,8.8-5.5,14.7.7,1.7,2.6,4.2,4.3,3.9h0Z"/>
    </g>
    <g>
      <path class="cls-5" d="M47.3,188.2c.9-2-1.9-5.2-4.1-6.8-5.5-4.2-14.4-4.1-15.5-1.5-1.1,2.7,5.8,9.2,13.1,9.9.8,0,5.5.5,6.5-1.6h0Z"/>
      <path class="cls-5" d="M50.1,186.1c.3,0,1.3,0,2.8-2.1,3.4-4.9,3.6-13.5,1.3-14.2-2.4-.8-8.6,6.5-7.3,12.2.4,1.6,1.6,4.1,3.2,4.2h0Z"/>
    </g>
    <g>
      <path class="cls-5" d="M35,163c1.2-1.7-.9-5.2-2.6-7.1-4.3-4.9-12.7-6.4-14.2-4.2-1.5,2.3,3.8,9.7,10.4,11.6.7.2,5.1,1.4,6.3-.3h0Z"/>
      <path class="cls-5" d="M38,161.5c.2,0,1.2.2,3-1.5,4.1-4,5.8-11.9,3.8-13-2.1-1.2-9.2,4.5-9,10,0,1.6.7,4.1,2.2,4.5Z"/>
    </g>
    <g>
      <path class="cls-5" d="M27.4,137c1.6-1,1.1-4.6.3-6.8-1.9-5.6-8.4-9.8-10.4-8.5-2,1.4-.2,9.4,4.6,13.4.5.4,3.7,3,5.4,1.9h.1Z"/>
      <path class="cls-5" d="M30.4,136.9c.2.1.9.6,3-.2,4.8-1.9,9-7.9,7.8-9.6-1.3-1.7-9.3.5-11,5.2-.5,1.3-.8,3.7.3,4.5h-.1Z"/>
    </g>
    <g>
      <path class="cls-5" d="M29.3,112.2c1.6-.5,1.9-3.7,1.7-5.7-.5-5.2-5.1-10-7.1-9.3-2,.8-2.1,7.9,1.2,12.3.4.5,2.6,3.3,4.2,2.8h0Z"/>
      <path class="cls-5" d="M31.9,112.7c.1,0,.7.7,2.6.5,4.5-.6,9.3-4.9,8.5-6.5-.8-1.7-8-1.4-10.4,2.2-.7,1-1.5,3-.7,3.9h0Z"/>
    </g>
  </g>
</svg>