<?xml version="1.0" encoding="UTF-8"?>
<svg id="Layer_1" data-name="Layer 1" xmlns="http://www.w3.org/2000/svg" version="1.1" viewBox="0 0 98 64">
  <defs>
    <style>
      .cls-1 {
        fill: none;
        stroke: #4d5a63;
        stroke-miterlimit: 10;
        stroke-width: 6px;
      }

      .cls-2 {
        fill: #c5d2f5;
      }

      .cls-2, .cls-3 {
        stroke-width: 0px;
      }

      .cls-3 {
        fill: #4d5a63;
      }
    </style>
  </defs>
  <rect class="cls-2" x="3" y="5" width="92" height="29"/>
  <rect class="cls-1" x="3" y="5" width="92" height="55" rx="6.02" ry="6.02"/>
  <path class="cls-3" d="M95,57.78H3v-24.78c10.35-4.08,27.86-9.46,50-9,17.97.38,32.45,4.46,42,8v25.78Z"/>
  <path class="cls-3" d="M64,27c-.31-.34-2.47-2.72-2-6,.47-3.24,3.24-5.53,6-6,4.3-.73,9.05,2.85,9,7-.05,3.61-3.72,5.84-4,6l-9-1Z"/>
  <path class="cls-3" d="M35.7,27.13c.31-.34,2.47-2.72,2-6-.47-3.24-3.24-5.53-6-6-4.3-.73-9.05,2.85-9,7,.05,3.61,3.72,5.84,4,6l9-1Z"/>
  <path class="cls-3" d="M11.56,17.62l2.6,4.2c1.15,1.85,3.98,1.25,4.29-.9l1.05-7.52c.3-2.16-2.26-3.51-3.87-2.04l-3.65,3.32c-.83.76-1,1.99-.41,2.95Z"/>
  <path class="cls-2" d="M48,46c1.15-.73,2.85-.73,4,0,1.41.9,1.37,2.48,2,4,1.48,3.6,6.39,6.17,11,6,4.09-.15,7.91-2.46,10-6,2.65-4.48,2.1-10.23-1-14-3.44-4.18-9.23-4.97-13-4-2.93.75-3.77,2.34-8,3-2.83.44-5.11.14-6,0-2.98-.48-3.98-1.4-6-2-3.51-1.05-8.48-.68-12,2-3.98,3.03-6.82,9.56-4,15,2.19,4.22,6.94,6.18,11,6,3.99-.18,8.54-2.49,10-6,.65-1.55.6-3.11,2-4Z"/>
  <circle class="cls-3" cx="64" cy="43" r="5"/>
  <circle class="cls-3" cx="37" cy="43" r="5"/>
</svg>