<?xml version="1.0" encoding="UTF-8"?>
<svg id="Layer_1" data-name="Layer 1" xmlns="http://www.w3.org/2000/svg" version="1.1" viewBox="0 0 200 130">
  <defs>
    <style>
      .cls-1 {
        fill: none;
      }

      .cls-1, .cls-2, .cls-3, .cls-4 {
        stroke: #c0dcff;
      }

      .cls-1, .cls-2, .cls-3, .cls-4, .cls-5, .cls-6 {
        stroke-miterlimit: 10;
      }

      .cls-1, .cls-3 {
        stroke-width: 7px;
      }

      .cls-7 {
        fill: #c8be65;
      }

      .cls-7, .cls-8, .cls-9 {
        stroke-width: 0px;
      }

      .cls-2 {
        stroke-width: 6px;
      }

      .cls-2, .cls-3, .cls-4 {
        fill: #597bd5;
      }

      .cls-2, .cls-4 {
        display: none;
      }

      .cls-8 {
        fill: #f3fcfe;
      }

      .cls-4 {
        stroke-width: 5px;
      }

      .cls-5 {
        fill: #9fec93;
        stroke: #f3fcfe;
        stroke-width: .75px;
      }

      .cls-6 {
        fill: #889ffd;
        stroke: #322a27;
        stroke-width: 1.5px;
      }

      .cls-9 {
        fill: #5a5a58;
      }
    </style>
  </defs>
  <rect class="cls-1" x="65.3459716" y="10.5202068" width="68.4671526" height="45.4024471" rx="7.7775701" ry="7.7775701" transform="translate(-3.0411783 11.1140483) rotate(-6.2922559)"/>
  <ellipse class="cls-2" cx="99.5" cy="81" rx="92.5" ry="46"/>
  <rect class="cls-4" x="3.5" y="49" width="193" height="73" rx="36.4999695" ry="36.4999695"/>
  <path class="cls-3" d="M100.1734772,42c32.9683838.0403061,78.7133789.0962372,91.3083344,27,4.9047089,10.4768219,4.2919769,23.9776001-1.3466797,34-12.7218781,22.6124268-48.1096039,22.3318481-89.9616547,22-41.6257248-.3300476-78.8767891-.625412-91.0383415-24-5.0350227-9.6773529-5.213089-22.2410736-.6533394-32,12.6605988-27.0966263,59.2635574-27.03965,91.6916809-27Z"/>
  <g>
    <rect class="cls-6" x="69" y="13" width="61.5" height="40" rx="7.7775701" ry="7.7775701" transform="translate(-3.0158827 11.1313959) rotate(-6.2922559)"/>
    <path class="cls-9" d="M99.2656136,26.3631066c-12.6952238,1.399829-23.4888157,5.9565706-29.391003,11.6969916l1.0759581,9.7579981c.4707768,4.2695337,4.2572843,7.3552996,8.4574543,6.8921712l44.9254726-4.9536723c4.20017-.4631285,7.2233844-4.2997631,6.7526076-8.5692968l-1.1171718-10.1317703c-7.0541656-4.1000128-18.3246421-6.0573465-30.7033179-4.6924214Z"/>
    <ellipse class="cls-9" cx="111.6559914" cy="24.64477" rx="4.5" ry="4" transform="translate(-2.0284255 12.3859584) rotate(-6.2922559)"/>
    <ellipse class="cls-9" cx="87.8005727" cy="27.2751692" rx="4.5" ry="4" transform="translate(-2.4604275 9.7872514) rotate(-6.2922559)"/>
    <path class="cls-7" d="M85.7914632,36.5512487c2.378298-3.6560996,7.1147042-4.0325341,14.5808444-4.6259277,7.6800355-.6103929,12.8084547-1.0179863,15.3480365,2.3319036,1.8813064,2.4815795,2.1435544,6.7635294-.0075761,9.055382-2.6379293,2.8105036-8.2591883,1.940149-10.0493577.1020239-.1063769-.1092231-.9189716-.9609013-2.2071515-1.7687516-1.2714578-.7973671-1.8144513-.8046408-2.0975515-.7747758-.258198.0272419-.7916697.1403622-1.8783592,1.2131765-1.0993715,1.0853271-1.7142599,2.1169566-1.7687516,2.2071515-1.4670857,2.4282898-8.8677412,4.613589-11.9277093,1.3151996-2.0433015-2.2025154-1.7261288-6.3901906.0075761-9.055382Z"/>
    <circle class="cls-9" cx="109.6018757" cy="37.950055" r="3"/>
    <circle class="cls-9" cx="92.7042875" cy="39.8132544" r="3"/>
    <polygon class="cls-8" points="73.1161516 26.0319239 77.4813305 20.3675319 78.6672288 30.5403191 73.1161516 26.0319239"/>
    <ellipse class="cls-5" cx="123.7877485" cy="43.4282859" rx="3" ry="2.5" transform="translate(-4.0140138 13.8287546) rotate(-6.2922559)"/>
  </g>
</svg>