<?xml version="1.0" encoding="UTF-8"?>
<svg id="Layer_1" data-name="Layer 1" xmlns="http://www.w3.org/2000/svg" version="1.1" viewBox="0 0 148 148">
  <defs>
    <style>
      .cls-1 {
        stroke-width: 7px;
      }

      .cls-1, .cls-2, .cls-3 {
        fill: none;
        stroke: #fefeee;
        stroke-linecap: round;
        stroke-linejoin: round;
      }

      .cls-4 {
        fill: #fefeee;
      }

      .cls-4, .cls-5, .cls-6 {
        stroke-width: 0px;
      }

      .cls-2 {
        stroke-width: 4px;
      }

      .cls-5 {
        fill: #866f3f;
      }

      .cls-3 {
        stroke-width: 5px;
      }

      .cls-6 {
        fill: #e9742e;
      }
    </style>
  </defs>
  <g>
    <path class="cls-6" d="M95.5406036,7.1237437c-2.9871875-1.2714204-6.0871923-1.3148585-8.4342192-.3564815C85.9029739,2.9195285,80.6182074.0211191,74.2783743.0211191c-6.4617033,0-11.8161533,3.0133568-12.881566,6.9716256-2.394573-1.1859896-5.7315476-1.2335357-8.937447.130999-4.981993,2.1204794-7.7471212,6.8318781-6.1760464,10.5230519,9.5394185,27.7773364,19.078837,55.5547489,28.6182555,83.3320853,8.9383599-27.7773364,17.8767198-55.5547489,26.8151558-83.3320853h-.0000761c1.5711509-3.6911738-1.1939773-8.4025726-6.1760464-10.5230519Z"/>
    <path class="cls-6" d="M53.4593964,140.8762563c2.9871875,1.2714204,6.0871923,1.3148585,8.4342192.3564815,1.2034105,3.8477336,6.4881769,6.746143,12.8280101,6.746143,6.4617033,0,11.8161533-3.0133568,12.881566-6.9716256,2.394573,1.1859896,5.7315476,1.2335357,8.937447-.130999,4.981993-2.1204794,7.7471212-6.8318781,6.1760464-10.5230519-9.5394185-27.7773364-19.078837-55.5547489-28.6182555-83.3320853-8.9383599,27.7773364-17.8767198,55.5547489-26.8151558,83.3320853h.0000761c-1.5711509,3.6911738,1.1939773,8.4025726,6.1760464,10.5230519Z"/>
    <path class="cls-6" d="M7.4666201,52.4593964c-1.2714204,2.9871875-1.3148585,6.0871923-.3564815,8.4342192-3.8477336,1.2034105-6.746143,6.4881769-6.746143,12.8280101,0,6.4617033,3.0133568,11.8161533,6.9716256,12.881566-1.1859896,2.394573-1.2335357,5.7315476.130999,8.937447,2.1204794,4.981993,6.8318781,7.7471212,10.5230519,6.1760464,27.7773364-9.5394185,55.5547489-19.078837,83.3320853-28.6182555-27.7773364-8.9383599-55.5547489-17.8767198-83.3320853-26.8151558v.0000761c-3.6911738-1.5711509-8.4025726,1.1939773-10.5230519,6.1760464Z"/>
    <path class="cls-6" d="M140.2191398,94.5405895c1.2714194-2.9871879,1.3148565-6.0871927.3564788-8.4342194,3.8477332-1.2034117,6.7461409-6.4881792,6.7461388-12.8280123-.0000021-6.4617033-3.0133607-11.8161523-6.9716298-12.8815637,1.1859888-2.3945734,1.2335338-5.731548-.1310019-8.937447-2.120481-4.9819923-6.8318806-7.747119-10.5230539-6.176043-27.7773333,9.5394276-55.5547426,19.0788552-83.3320759,28.6182827,27.7773393,8.9383508,55.5547547,17.8767016,83.332094,26.8151285v-.0000761c3.6911743,1.5711497,8.4025722-1.1939801,10.5230499-6.1760498Z"/>
  </g>
  <g>
    <path class="cls-6" d="M136.1479801,41.4224144c-1.2436113-2.9988714-3.4272909-5.1996576-5.7743718-6.1579025,1.833615-3.5904187.0877943-9.3594432-4.4402361-13.7968327-4.6150724-4.522689-10.5484384-6.1181898-14.0798564-4.0368243-.8801497-2.5230711-3.2302023-4.8926517-6.4749851-6.1619548-5.0424054-1.9725201-10.3149251-.5429231-11.7763675,3.193014-12.6287364,26.5159563-25.2575261,53.0319669-37.8862625,79.5479232,25.8259201-13.5829506,51.6518935-27.1659555,77.4778679-40.7488528l-.0000543-.0000532c3.7056803-1.5366239,5.0283849-6.8369696,2.954266-11.8385169Z"/>
    <path class="cls-6" d="M12.4764333,107.4974562c1.2436113,2.9988714,3.4272909,5.1996576,5.7743718,6.1579025-1.833615,3.5904187-.0877943,9.3594432,4.4402361,13.7968327,4.6150724,4.522689,10.5484384,6.1181898,14.0798564,4.0368243.8801497,2.5230711,3.2302023,4.8926517,6.4749851,6.1619548,5.0424054,1.9725201,10.3149251.5429231,11.7763675-3.193014,12.6287364-26.5159563,25.2575261-53.0319669,37.8862625-79.5479232-25.8259201,13.5829506-51.6518935,27.1659555-77.4778679,40.7488528l.0000543.0000532c-3.7056803,1.5366239-5.0283849,6.8369696-2.954266,11.8385169Z"/>
    <path class="cls-6" d="M41.5124262,12.157078c-2.9988714,1.2436113-5.1996576,3.4272909-6.1579025,5.7743718-3.5904187-1.833615-9.3594432-.0877943-13.7968327,4.4402361-4.522689,4.6150724-6.1181898,10.5484384-4.0368243,14.0798564-2.5230711.8801497-4.8926517,3.2302023-6.1619548,6.4749851-1.9725201,5.0424054-.5429231,10.3149251,3.193014,11.7763675,26.5159563,12.6287364,53.0319669,25.2575261,79.5479232,37.8862625-13.5829506-25.8259201-27.1659555-51.6518935-40.7488528-77.4778679l-.0000532.0000543c-1.5366239-3.7056803-6.8369696-5.0283849-11.8385169-2.954266Z"/>
    <path class="cls-6" d="M106.8732638,135.1286975c2.998871-1.2436123,5.1996565-3.4272926,6.1579006-5.7743738,3.5904193,1.8336138,9.3594433.0877912,13.7968312-4.4402406,4.5226875-4.6150739,6.1181864-10.5484404,4.0368197-14.0798577,2.5230708-.8801505,4.8926507-3.2302039,6.1619527-6.4749871,1.9725184-5.042406.5429198-10.3149253-3.1930179-11.7763665-26.5159604-12.6287278-53.0319752-25.2575088-79.5479356-37.8862366,13.582959,25.8259157,27.1659723,51.6518846,40.7488781,77.4778546l.0000532-.0000543c1.5366251,3.7056798,6.8369712,5.0283826,11.8385179,2.9542621Z"/>
  </g>
  <g>
    <path class="cls-4" d="M74.6410692,132.5792536c3.2195539,4.4300254,4.1283467,8.5661127,2.7103732,9.9380351-.5120274.4954019-1.6097046.9034577-2.7103732.9034577s-2.1983458-.4080559-2.7103732-.9034577c-1.4179734-1.3719224-.5091807-5.5080097,2.7103732-9.9380351Z"/>
    <path class="cls-4" d="M85.930696,126.3054959c5.0032281,2.2267376,7.8583095,5.3542979,7.3162696,7.2514043-.1957278.6850443-.9423162,1.5872696-1.8955232,2.137604s-2.1078513.7457862-2.7989809.5727693c-1.9139622-.4791329-3.1949683-4.515486-2.6217655-9.9617775Z"/>
    <path class="cls-4" d="M65.0817318,126.6744776c.5732015,5.4462916-.7078054,9.4826444-2.6217677,9.9617769-.6911297.1730168-1.8457739-.0224353-2.7989808-.5727699s-1.6997951-1.45256-1.8955227-2.1376044c-.5420394-1.8971065,2.3130426-5.0246662,7.3162713-7.2514026Z"/>
  </g>
  <g>
    <path class="cls-4" d="M115.7113502,112.5256118c5.3568951,1.1376851,8.7999175,3.603191,8.6642131,5.5715416-.0490003.71077-.5916591,1.7485206-1.4095929,2.4850366s-1.9066964,1.167794-2.6186962,1.1422735c-1.9717571-.0706675-4.0640872-3.7524167-4.635924-9.1988518Z"/>
    <path class="cls-4" d="M119.9028423,100.3089387c5.2080498-1.6931833,9.4225476-1.2795038,10.2891995.49299.3129495.6400451.3618685,1.8100928.0217751,2.8569012s-1.0673505,1.9646875-1.6967207,2.298586c-1.7429255.9246787-5.3958111-1.2176446-8.6142539-5.6484773Z"/>
    <path class="cls-4" d="M104.6563729,114.5342903c4.0703638,3.6637127,5.8193549,7.520415,4.7176558,9.1572042-.3978206.5910447-1.3866524,1.2184334-2.4632618,1.4473078s-2.2351445.0579906-2.8389942-.3201108c-1.6722577-1.0470788-1.6433933-5.2817322.5846002-10.2844012Z"/>
  </g>
  <g>
    <path class="cls-4" d="M34.382814,116.2788386c-1.1376851,5.3568951-3.603191,8.7999175-5.5715416,8.6642131-.71077-.0490003-1.7485206-.5916591-2.4850366-1.4095929s-1.167794-1.9066964-1.1422735-2.6186962c.0706675-1.9717571,3.7524167-4.0640872,9.1988518-4.635924Z"/>
    <path class="cls-4" d="M46.5994872,120.4703307c1.6931833,5.2080498,1.2795038,9.4225476-.49299,10.2891995-.6400451.3129495-1.8100928.3618685-2.8569012.0217751s-1.9646875-1.0673505-2.298586-1.6967207c-.9246787-1.7429255,1.2176446-5.3958111,5.6484773-8.6142539Z"/>
    <path class="cls-4" d="M32.3741355,105.2238613c-3.6637127,4.0703638-7.520415,5.8193549-9.1572042,4.7176558-.5910447-.3978206-1.2184334-1.3866524-1.4473078-2.4632618s-.0579906-2.2351445.3201108-2.8389942c1.0470788-1.6722577,5.2817322-1.6433933,10.2844012.5846002Z"/>
  </g>
  <g>
    <path class="cls-4" d="M16.7900807,73.9979773c-4.4300254,3.2195539-8.5661127,4.1283467-9.9380351,2.7103732-.4954019-.5120274-.9034577-1.6097046-.9034577-2.7103732s.4080559-2.1983458.9034577-2.7103732c1.3719224-1.4179734,5.5080097-.5091807,9.9380351,2.7103732Z"/>
    <path class="cls-4" d="M23.0638384,85.287604c-2.2267376,5.0032281-5.3542979,7.8583095-7.2514043,7.3162696-.6850443-.1957278-1.5872696-.9423162-2.137604-1.8955232s-.7457862-2.1078513-.5727693-2.7989809c.4791329-1.9139622,4.515486-3.1949683,9.9617775-2.6217655Z"/>
    <path class="cls-4" d="M22.6948567,64.4386398c-5.4462916.5732015-9.4826444-.7078054-9.9617769-2.6217677-.1730168-.6911297.0224353-1.8457739.5727699-2.7989808s1.45256-1.6997951,2.1376044-1.8955227c1.8971065-.5420394,5.0246662,2.3130426,7.2514026,7.3162713Z"/>
  </g>
  <g>
    <path class="cls-4" d="M131.2223456,73.7282651c4.4300254-3.2195539,8.5661127-4.1283467,9.9380351-2.7103732.4954019.5120274.9034577,1.6097046.9034577,2.7103732s-.4080559,2.1983458-.9034577,2.7103732c-1.3719224,1.4179734-5.5080097.5091807-9.9380351-2.7103732Z"/>
    <path class="cls-4" d="M124.9485879,62.4386383c2.2267376-5.0032281,5.3542979-7.8583095,7.2514043-7.3162696.6850443.1957278,1.5872696.9423162,2.137604,1.8955232s.7457862,2.1078513.5727693,2.7989809c-.4791329,1.9139622-4.515486,3.1949683-9.9617775,2.6217655Z"/>
    <path class="cls-4" d="M125.3175696,83.2876025c5.4462916-.5732015,9.4826444.7078054,9.9617769,2.6217677.1730168.6911297-.0224353,1.8457739-.5727699,2.7989808s-1.45256,1.6997951-2.1376044,1.8955227c-1.8971065.5420394-5.0246662-2.3130426-7.2514026-7.3162713Z"/>
  </g>
  <g>
    <path class="cls-3" d="M76.7653122,51.5278053c8.2377548-4.5713654,21.9620514-4.0687523,27.4676208,5.4640999,5.4788132,9.4865265-.7514725,21.7342148-9.0017624,26.5197067-7.2654953,4.2142792-15.1878281,2.1138077-17.2311707,1.4883881-2.554245-.7817993-7.4167099-2.2700958-10.2364502-6.9524841-3.3329468-5.5346146-1.482872-11.6642609-.7635498-14.0475159.4191132-1.3885994,2.7444839-8.5761375,9.7653122-12.4721947Z"/>
    <path class="cls-2" d="M79,77c6.6057587-1.6666946,14.8215408-3.8536453,21-11,1.0544357-1.2196198,5.5328445-6.399601,4.0573654-8.75-1.2259064-1.9528351-5.9526978-.9819412-9.0270157-.3504715-2.896843.5950165-12.3712769,2.8985977-21.0303497,12.1004715-2.1978302,2.3356018-6.3139343,6.7097244-5.1781998,8.5932693,1.0335159,1.7140198,5.8876572.4892731,10.1781998-.5932693Z"/>
    <line class="cls-1" x1="55" y1="86" x2="67.7106781" y2="78.2893219"/>
    <rect class="cls-4" x="43.9688463" y="76.5962087" width="14.597063" height="26.6234958" rx="5.8352928" ry="5.8352928" transform="translate(101.5468418 -.5561809) rotate(58.7577452)"/>
    <rect class="cls-5" x="43.9688463" y="75.5962087" width="14.597063" height="26.6234958" rx="5.8352928" ry="5.8352928" transform="translate(100.6918598 -1.0375233) rotate(58.7577452)"/>
  </g>
</svg>