<?xml version="1.0" encoding="UTF-8"?>
<svg id="Layer_1" data-name="Layer 1" xmlns="http://www.w3.org/2000/svg" version="1.1" viewBox="0 0 148 148">
  <defs>
    <style>
      .cls-1 {
        stroke-width: 2px;
      }

      .cls-1, .cls-2 {
        fill: none;
        stroke: #e9742e;
        stroke-linecap: round;
        stroke-linejoin: round;
      }

      .cls-3 {
        fill: #44a7a2;
      }

      .cls-3, .cls-4, .cls-5 {
        stroke-width: 0px;
      }

      .cls-4 {
        fill: #fefeee;
      }

      .cls-2 {
        stroke-width: 3px;
      }

      .cls-5 {
        fill: #e9742e;
      }
    </style>
  </defs>
  <path class="cls-5" d="M148,62.4960469c0-27.8903809-33.1309204-50.5-74-50.5S0,34.605666,0,62.4960469c0,11.5979004,5.743042,22.2748413,15.3752441,30.800354-1.3851318,3.9520264-2.2033081,7.8988647-2.3752441,11.699646-.1419067,3.1365967-.3366089,9.0675659,3,15,8.9261475,15.8706055,34.2318115,15.9387207,57,16,23.4290161.0630493,48.1086426.1294556,58-16,3.8422241-6.2653809,3.9776001-12.5684204,4-15,.0359497-3.8978271-.6794434-7.9502563-2.0237427-12.0049438,9.4233398-8.4741211,15.0237427-19.0366211,15.0237427-30.4950562Z"/>
  <g>
    <path class="cls-4" d="M59,126.5c-.673008,2.0523682-2.8751717,2.7891235-5,3.5-1.4552574.4868622-4.4937973,1.2195129-7.9706497.1091309-1.8195686-.5811005-4.5349426-1.448288-5.0293503-3.6091309-.38974-1.7033768.7546844-3.5373688,2-4.5,1.3394318-1.0353851,2.3017464-.6809845,7-1,4.9002228-.3327332,5.727211-.8454895,7,0,1.6466751,1.0938568,2.6445351,3.5344696,2,5.5Z"/>
    <path class="cls-3" d="M59,125.5c-.673008,2.0523682-2.8751717,2.7891235-5,3.5-1.4552574.4868622-4.4937973,1.2195129-7.9706497.1091309-1.8195686-.5811005-4.5349426-1.448288-5.0293503-3.6091309-.38974-1.7033768.7546844-3.5373688,2-4.5,1.3394318-1.0353851,2.3017464-.6809845,7-1,4.9002228-.3327332,5.727211-.8454895,7,0,1.6466751,1.0938568,2.6445351,3.5344696,2,5.5Z"/>
    <path class="cls-4" d="M72,97.5c.5699081,6.0402679-1.5470047,10.5696182-2,11.5-4.1880569,8.6015625-13.8919334,13.0118179-22.5,13-1.9253998-.0026398-12.5793686-.2385788-19.5-9-.7657661-.9694443-5.4400215-7.0703888-5-15.5.5828037-11.1649628,10.0376816-24.5030975,24.5-24.5,14.9928055.0032043,23.5415573,14.3417892,24.5,24.5Z"/>
    <path class="cls-4" d="M24,100c-2.1733322.0815048-4.1192303,1.2123032-5,3-1.2537651,2.5447617.1028671,5.5029831,2,7,2.5436668,2.0071945,5.6891575,1.0957031,6,1"/>
    <path class="cls-4" d="M71.3699399,95.3809271c2.1429085-.3714283,4.281158.330792,5.5138457,1.896709,1.7547155,2.2290609,1.041727,5.404462-.5033167,7.2626904-2.071587,2.4915052-5.337772,2.2528355-5.6617101,2.2237444"/>
    <path class="cls-2" d="M33,91l5-6,5.3815002,6,4.9876823-6,5.4213943,6c1.569809-1.8333359,3.1396141-3.6666641,4.7094231-5.5"/>
    <path class="cls-2" d="M53.5,106.5c-.5154572,2.0125427-2.0662384,3.5714722-4,4-2.3356667.5175934-4.8443718-.699379-6-3"/>
    <circle class="cls-2" cx="56.5" cy="97.5" r="1"/>
    <circle class="cls-2" cx="38.6445881" cy="98.8845688" r="1"/>
  </g>
  <g>
    <ellipse class="cls-4" cx="95.3072893" cy="126.5933492" rx="5.4728412" ry="10.2703908" transform="translate(-38.8242409 210.9621116) rotate(-85.1952104)"/>
    <ellipse class="cls-3" cx="95.3072893" cy="125.5933492" rx="5.4728412" ry="10.2703908" transform="translate(-37.827755 210.0458728) rotate(-85.1952104)"/>
    <ellipse class="cls-4" cx="98.5" cy="105.5" rx="18.5" ry="25.5" transform="translate(-14.879731 194.8170565) rotate(-85.1952104)"/>
    <polygon class="cls-4" points="118 96 112 75 104 91 118 96"/>
    <polyline class="cls-4" points="96.3734957 90.5975735 81.5626487 91.8777342 92.6996969 73.0903406"/>
    <path class="cls-1" d="M103.5,102.5c.4074097-2.5051575,2.0167618-4.52948,4-5,2.8215942-.6694183,6.4926453,1.7842636,7,6"/>
    <path class="cls-1" d="M94.011045,101.2760307c.2488561-2.5258399-.7873564-4.8952617-2.5835316-5.8587852-2.5554558-1.3708247-6.7330939.0590392-8.3049089,4.0035594"/>
    <path class="cls-2" d="M103,110c-1.2083969,2.1495972-3.6048813,3.3431015-6,3-2.5494537-.3652115-4.5966568-2.3997269-5-5"/>
  </g>
</svg>