<?xml version="1.0" encoding="UTF-8"?>
<svg id="Layer_1" data-name="Layer 1" xmlns="http://www.w3.org/2000/svg" version="1.1" viewBox="0 0 148 148">
  <defs>
    <style>
      .cls-1 {
        fill: #fefeee;
      }

      .cls-1, .cls-2, .cls-3 {
        stroke-width: 0px;
      }

      .cls-2 {
        fill: #e34839;
      }

      .cls-3 {
        fill: #a08e2b;
      }
    </style>
  </defs>
  <circle class="cls-1" cx="74" cy="74" r="74"/>
  <circle class="cls-3" cx="74" cy="74" r="68.5"/>
  <g>
    <path class="cls-1" d="M85.7216882,48.1002397c-1.3475828-.6648416-1.1404378-2.2064586-2.1359899-3.5266907-1.6155802-2.1424719-5.4032107-2.3820907-7.8687261-1.7558899-4.9428985,1.2554207-8.1187006,6.8916418-7.1934926,10.5949829.5671096,2.2699757,2.3401284,2.473276,2.4311234,4.4821467.0466928,1.0308081-.3201459,3.1847495-6.167981,7.1383479-4.6666204,3.155012-8.4850464,4.5228483-9.9197495,5.1573802-8.6333845,3.8183427-15.484421,18.4707414-12.0259176,28.8336142,5.5308836,16.5724204,34.9924627,14.8762464,36.9974738,14.7372635,5.8758471-.4073007,18.6718148-1.294282,23.9564566-10.5398382,4.810844-8.4166387.5835592-18.8383269.1252004-19.9244655-5.2859382-12.5259036-14.1365037-18.6589102-14.1365845-18.6589651-.7171764-.496967-3.8070589-2.5878432-3.3865794-4.1870133.3852349-1.4651293,3.3448439-1.1019976,5.1424693-3.6817129.2030897-.2914496,1.0986133-1.6354363,1.0255117-3.456635-.0925709-2.3059559-1.7084302-4.6395923-3.6817129-5.1424693-1.4265448-.3635442-2.0346296.4858928-3.1615016-.0700556Z"/>
    <path class="cls-2" d="M65.5170002,60.6210456c.8874758-1.0469071,2.610057-.4514905,7.2784592-.1550222,2.1039457.1336106,4.2155477.0847367,6.3230031.1401113,7.6064164.1998619,8.4891982.8945696,8.8241822,1.4607564.214599.3627104.1485588.5046188.2951335.955456.2050278.6306359,8.3399967,3.4799448,12.505895,6.6032257.405753.3042073,4.785647,3.6502548,3.9768463,6.0979253-.317063.9595527-1.45705,1.8582094-2.5712346,1.8408564-1.9205656-.0299149-3.080602-2.7709496-7.1383479-6.167981-.3945586-.3303189-1.008276-.8273752-1.2505895-.6603226-.3349778.2309381.2516345,1.5864827,1.1805339,3.8218241,2.2328025,5.3731045,2.3725405,6.0335859,2.0659343,6.6881923-.6670809,1.4242446-3.1671586,2.2231707-4.7772802,1.4756673-1.1257641-.5226335-1.0977997-1.4676022-3.0213903-6.3930588-.6337098-1.6226384-.0518664-.0224749-3.0213903-6.3930588-.2884169-.6187477-.7723251-1.6602069-1.8408564-2.5712346-1.0161313-.8663514-2.0626265-1.1898802-2.501179-1.3206451-4.7888603-1.4278844-13.5177669,1.6787492-16.1026413-1.3057342-1.0186282-1.176112-1.0002856-3.2024906-.2250778-4.1169576Z"/>
    <path class="cls-3" d="M76.199469,103.6217861l-8.7712608-4.0728168-8.9969282,3.5465669c-.6565586.2588138-1.3512612-.2780449-1.2663895-.9786522l1.1630103-9.6005344-6.1531893-7.4606377c-.4490343-.5444465-.1531262-1.3710464.5394177-1.5068282l9.4900407-1.8606398,5.194048-8.1574946c.3790401-.5953002,1.256624-.5693084,1.599768.0473812l4.7021574,8.4505958,9.3632875,2.4190288c.683294.1765307.9297626,1.0191945.4492933,1.5361114l-6.5839476,7.0833952.5927819,9.6525366c.0432588.7044022-.6819991,1.1992052-1.3220895.9019879Z"/>
  </g>
  <g>
    <path class="cls-1" d="M131,67c.4572144-1.5266953,1.7212677-2.2590942,3-3,1.0168152-.5891418,3.0479736-1.7660141,4-1,1.0289154.8278885.1842651,3.4319229,0,4-.1672211.5155334-.4050751,1.248848-1,2-1.0869598,1.3724136-3.4692841,2.9349747-5,2-1.1871796-.7251434-1.3984833-2.6693954-1-4Z"/>
    <path class="cls-1" d="M129.206705,67.8467186c-.9852468-1.25265-2.4298235-1.4704514-3.891176-1.6907835-1.1620274-.1751956-3.483265-.5251802-4.0880385.5366017-.6536141,1.147543,1.0871695,3.2603851,1.4669283,3.7213064.3446329.4182891.8348447,1.0132825,1.6637908,1.4939211,1.5145358.8781699,4.3039166,1.4581872,5.3850972.0269928.8385314-1.1099971.3220932-2.9962783-.5366017-4.0880385Z"/>
    <path class="cls-1" d="M132.6742011,77.0908803c.4572144-1.5266953,1.7212677-2.2590942,3-3,1.0168152-.5891418,3.0479736-1.7660141,4-1,1.0289154.8278885.1842651,3.4319229,0,4-.1672211.5155334-.4050751,1.248848-1,2-1.0869598,1.3724136-3.4692841,2.9349747-5,2-1.1871796-.7251434-1.3984833-2.6693954-1-4Z"/>
    <path class="cls-1" d="M130.8809061,77.9375989c-.9852468-1.25265-2.4298235-1.4704514-3.891176-1.6907835-1.1620274-.1751956-3.483265-.5251802-4.0880385.5366017-.6536141,1.147543,1.0871695,3.2603851,1.4669283,3.7213064.3446329.4182891.8348447,1.0132825,1.6637908,1.4939211,1.5145358.8781699,4.3039166,1.4581872,5.3850972.0269928.8385314-1.1099971.3220932-2.9962783-.5366017-4.0880385Z"/>
    <path class="cls-1" d="M131.4826603,89.6424119c.3627738-1.55185,1.5795569-2.3603536,2.8104699-3.1782478.978791-.650361,2.9339921-1.9495228,3.9311822-1.2433048,1.0777272.763263.3942828,3.4141748.2451852,3.9924785-.1353063.5248141-.3277636,1.2713292-.875527,2.0575355-1.0007921,1.4364596-3.2828574,3.1421101-4.8680055,2.3027207-1.2293958-.6510102-1.5594777-2.5786541-1.2433048-3.9311822Z"/>
    <path class="cls-1" d="M129.9137951,89.6601451c-.2974589-1.5656825-1.4793114-2.4244395-2.6748882-3.2931707-.9506928-.6907854-2.8497651-2.0706975-3.8756588-1.4068648-1.1087494.7174545-.5369338,3.394665-.4121883,3.9787059.1132066.5300206.2742285,1.2839415.7885823,2.0924.9397502,1.4771156,3.1483747,3.2768499,4.7672882,2.5045884,1.2555835-.5989477,1.6661118-2.5110752,1.4068648-3.8756588Z"/>
    <path class="cls-1" d="M127.2222594,101.3387316c.9825932-1.2547327,2.4267056-1.4755912,3.8875885-1.6990161,1.161654-.1776548,3.4821455-.5325519,4.0891651.5279475.6560416,1.1461569-1.0802659,3.262679-1.4590483,3.724403-.3437467.4190177-.8326981,1.0150473-1.6606249,1.4974394-1.5126736.8813737-4.3008205,1.4672939-5.385028.0383911-.840879-1.1082197-.3284346-2.9955898.5279475-4.0891651Z"/>
    <path class="cls-1" d="M125.7918439,100.6940891c.3895933-1.545335-.3206719-2.8219566-1.0391842-4.1134044-.5713464-1.0269199-1.7126397-3.0782811-2.9226891-2.9082449-1.3077816.1837761-1.9166549,2.8528026-2.0494801,3.4350591-.1205403.528401-.2920081,1.280015-.1659753,2.2298996.2302592,1.7355061,1.4755059,4.2980101,3.2690838,4.2793797,1.3910498-.0144524,2.5686864-1.5758419,2.9082449-2.9226891Z"/>
    <path class="cls-1" d="M122.1927419,109.8108472c1.1394919-1.114182,2.600118-1.1426528,4.0777066-1.1714558,1.174937-.0228969,3.5219648-.0686532,3.9838168,1.0626401.4991488,1.2226679-1.5011318,3.0917069-1.9375005,3.4994416-.3960067.3700221-.959295.8963593-1.8436107,1.2653457-1.6157012.674174-4.456768.8872582-5.3430523-.6721548-.687375-1.2094395.0695111-3.0127389,1.0626401-3.9838168Z"/>
    <path class="cls-1" d="M120.8598407,108.9831837c.5899985-1.4804544.0543062-2.8395986-.4876057-4.2145273-.4309191-1.0933023-1.2916969-3.2772653-2.5136018-3.2683032-1.3205954.0096925-2.2761578,2.5751028-2.4846144,3.1347554-.1891762.5078878-.4582736,1.2303221-.4586184,2.1885313-.0006414,1.7507143.8957691,4.4550652,2.676137,4.6731457,1.3808048.169134,2.7540803-1.2233025,3.2683032-2.5136018Z"/>
    <path class="cls-1" d="M115.0614561,117.8760792c1.3222353-.8896837,2.7639169-.6534773,4.2223412-.4145294,1.159697.1900111,3.4762848.5695552,3.7258824,1.7657295.2697507,1.292788-2.0356172,2.7691716-2.5385412,3.0912471-.4564061.2922859-1.1056098.7080495-2.0420824.9109882-1.7109975.3707943-4.5437421.0664528-5.1333294-1.627553-.4572647-1.3138254.6133283-2.9504671,1.7657295-3.7258824Z"/>
    <path class="cls-1" d="M113.9002557,116.8209651c.84806-1.34931.5670554-2.7829332.2827889-4.2332057-.2260471-1.1532146-.677576-3.456854-1.8809454-3.6690659-1.3005641-.2293453-2.7044116,2.1208976-3.0106631,2.6336112-.2779256.4652902-.6732626,1.1271311-.8469287,2.0694714-.3173114,1.7217184.0751313,4.5436069,1.7866824,5.0801344,1.327433.416113,2.9299279-.7049469,3.6690659-1.8809454Z"/>
    <path class="cls-1" d="M105.1328354,125.0380065c1.057656-1.1921439,2.5125908-1.3240683,3.9844218-1.4575263,1.1703592-.1061156,3.5082412-.3181077,4.0491146.7776057.5845528,1.1842147-1.2782249,3.1903275-1.684597,3.6279654-.3687846.3971593-.893351.9620972-1.7492899,1.3928334-1.5638541.786995-4.382673,1.2009102-5.3772552-.2917636-.771368-1.1576786-.1441983-3.0100888.7776057-4.0491146Z"/>
    <path class="cls-1" d="M104.9477692,122.7089746c1.0186074-1.2256762.9291325-2.6838372.8386199-4.1589321-.0719795-1.1729536-.2157461-3.5160209-1.3806161-3.8850868-1.258956-.3988683-2.9605052,1.7456968-3.3317014,2.2135415-.3368632.4245713-.8160345,1.0284915-1.1124653,1.9396961-.5416104,1.66483-.5247638,4.5138267,1.1010761,5.2713975,1.2609581.5875482,2.9973073-.3123722,3.8850868-1.3806161Z"/>
    <path class="cls-1" d="M96.0093367,128.4858947c1.4172245-.7289156,2.8213808-.3256983,4.2418443.0822002,1.1295108.3243556,3.3858015.9722639,3.4937702,2.1894223.1166825,1.3154662-2.3455517,2.5120581-2.8826963,2.7730961-.4874616.2368941-1.1808404.5738667-2.1346222.665874-1.742624.1681149-4.5203247-.4654814-4.9077183-2.2168224-.3004487-1.3582926.954232-2.8584732,2.1894223-3.4937702Z"/>
    <path class="cls-1" d="M96.0712049,126.5240122c1.2828351-.9456096,1.5456851-2.3826722,1.8115891-3.8364235.211433-1.1559833.6338047-3.4651466-.4085541-4.1028141-1.1265513-.689165-3.292775.9847239-3.7653417,1.3498896-.4288574.3313894-1.0388832.8027632-1.5451985,1.6162802-.9250826,1.4863455-1.592008,4.2562329-.1953089,5.3816219,1.0832435.8728183,2.984746.4155946,4.1028141-.4085541Z"/>
    <path class="cls-1" d="M126.1771307,62.8893452c-1.1921439-1.057656-1.3240684-2.5125907-1.4575264-3.9844217-.1061156-1.1703592-.3181078-3.5082412.7776055-4.0491147,1.1842146-.5845528,3.1903276,1.2782248,3.6279655,1.6845969.3971594.3687846.9620973.8933509,1.3928335,1.7492898.786995,1.5638541,1.2009104,4.382673-.2917634,5.3772553-1.1576786.771368-3.0100888.1441985-4.0491147-.7776055Z"/>
  </g>
  <g>
    <path class="cls-1" d="M18.3419315,67c-.4572144-1.5266953-1.7212677-2.2590942-3-3-1.0168152-.5891418-3.0479736-1.7660141-4-1-1.0289154.8278885-.1842651,3.4319229,0,4,.1672211.5155334.4050751,1.248848,1,2,1.0869598,1.3724136,3.4692841,2.9349747,5,2,1.1871796-.7251434,1.3984833-2.6693954,1-4Z"/>
    <path class="cls-1" d="M20.1352266,67.8467186c.9852468-1.25265,2.4298235-1.4704514,3.891176-1.6907835,1.1620274-.1751956,3.483265-.5251802,4.0880385.5366017.6536141,1.147543-1.0871695,3.2603851-1.4669283,3.7213064-.3446329.4182891-.8348447,1.0132825-1.6637908,1.4939211-1.5145358.8781699-4.3039166,1.4581872-5.3850972.0269928-.8385314-1.1099971-.3220932-2.9962783.5366017-4.0880385Z"/>
    <path class="cls-1" d="M16.6677304,77.0908803c-.4572144-1.5266953-1.7212677-2.2590942-3-3-1.0168152-.5891418-3.0479736-1.7660141-4-1-1.0289154.8278885-.1842651,3.4319229,0,4,.1672211.5155334.4050751,1.248848,1,2,1.0869598,1.3724136,3.4692841,2.9349747,5,2,1.1871796-.7251434,1.3984833-2.6693954,1-4Z"/>
    <path class="cls-1" d="M18.4610255,77.9375989c.9852468-1.25265,2.4298235-1.4704514,3.891176-1.6907835,1.1620274-.1751956,3.483265-.5251802,4.0880385.5366017.6536141,1.147543-1.0871695,3.2603851-1.4669283,3.7213064-.3446329.4182891-.8348447,1.0132825-1.6637908,1.4939211-1.5145358.8781699-4.3039166,1.4581872-5.3850972.0269928-.8385314-1.1099971-.3220932-2.9962783.5366017-4.0880385Z"/>
    <path class="cls-1" d="M17.8592713,89.6424119c-.3627738-1.55185-1.5795569-2.3603536-2.8104699-3.1782478-.978791-.650361-2.9339921-1.9495228-3.9311822-1.2433048-1.0777272.763263-.3942828,3.4141748-.2451852,3.9924785.1353063.5248141.3277636,1.2713292.875527,2.0575355,1.0007921,1.4364596,3.2828574,3.1421101,4.8680055,2.3027207,1.2293958-.6510102,1.5594777-2.5786541,1.2433048-3.9311822Z"/>
    <path class="cls-1" d="M19.4281364,89.6601451c.2974589-1.5656825,1.4793114-2.4244395,2.6748882-3.2931707.9506928-.6907854,2.8497651-2.0706975,3.8756588-1.4068648,1.1087494.7174545.5369338,3.394665.4121883,3.9787059-.1132066.5300206-.2742285,1.2839415-.7885823,2.0924-.9397502,1.4771156-3.1483747,3.2768499-4.7672882,2.5045884-1.2555835-.5989477-1.6661118-2.5110752-1.4068648-3.8756588Z"/>
    <path class="cls-1" d="M22.1196722,101.3387316c-.9825932-1.2547327-2.4267056-1.4755912-3.8875885-1.6990161-1.161654-.1776548-3.4821455-.5325519-4.0891651.5279475-.6560416,1.1461569,1.0802659,3.262679,1.4590483,3.724403.3437467.4190177.8326981,1.0150473,1.6606249,1.4974394,1.5126736.8813737,4.3008205,1.4672939,5.385028.0383911.840879-1.1082197.3284346-2.9955898-.5279475-4.0891651Z"/>
    <path class="cls-1" d="M23.5500876,100.6940891c-.3895933-1.545335.3206719-2.8219566,1.0391842-4.1134044.5713464-1.0269199,1.7126397-3.0782811,2.9226891-2.9082449,1.3077816.1837761,1.9166549,2.8528026,2.0494801,3.4350591.1205403.528401.2920081,1.280015.1659753,2.2298996-.2302592,1.7355061-1.4755059,4.2980101-3.2690838,4.2793797-1.3910498-.0144524-2.5686864-1.5758419-2.9082449-2.9226891Z"/>
    <path class="cls-1" d="M27.1491896,109.8108472c-1.1394919-1.114182-2.600118-1.1426528-4.0777066-1.1714558-1.174937-.0228969-3.5219648-.0686532-3.9838168,1.0626401-.4991488,1.2226679,1.5011318,3.0917069,1.9375005,3.4994416.3960067.3700221.959295.8963593,1.8436107,1.2653457,1.6157012.674174,4.456768.8872582,5.3430523-.6721548.687375-1.2094395-.0695111-3.0127389-1.0626401-3.9838168Z"/>
    <path class="cls-1" d="M28.4820908,108.9831837c-.5899985-1.4804544-.0543062-2.8395986.4876057-4.2145273.4309191-1.0933023,1.2916969-3.2772653,2.5136018-3.2683032,1.3205954.0096925,2.2761578,2.5751028,2.4846144,3.1347554.1891762.5078878.4582736,1.2303221.4586184,2.1885313.0006414,1.7507143-.8957691,4.4550652-2.676137,4.6731457-1.3808048.169134-2.7540803-1.2233025-3.2683032-2.5136018Z"/>
    <path class="cls-1" d="M34.2804754,117.8760792c-1.3222353-.8896837-2.7639169-.6534773-4.2223412-.4145294-1.159697.1900111-3.4762848.5695552-3.7258824,1.7657295-.2697507,1.292788,2.0356172,2.7691716,2.5385412,3.0912471.4564061.2922859,1.1056098.7080495,2.0420824.9109882,1.7109975.3707943,4.5437421.0664528,5.1333294-1.627553.4572647-1.3138254-.6133283-2.9504671-1.7657295-3.7258824Z"/>
    <path class="cls-1" d="M35.4416759,116.8209651c-.84806-1.34931-.5670554-2.7829332-.2827889-4.2332057.2260471-1.1532146.677576-3.456854,1.8809454-3.6690659,1.3005641-.2293453,2.7044116,2.1208976,3.0106631,2.6336112.2779256.4652902.6732626,1.1271311.8469287,2.0694714.3173114,1.7217184-.0751313,4.5436069-1.7866824,5.0801344-1.327433.416113-2.9299279-.7049469-3.6690659-1.8809454Z"/>
    <path class="cls-1" d="M44.2090962,125.0380065c-1.057656-1.1921439-2.5125908-1.3240683-3.9844218-1.4575263-1.1703592-.1061156-3.5082412-.3181077-4.0491146.7776057-.5845528,1.1842147,1.2782249,3.1903275,1.684597,3.6279654.3687846.3971593.893351.9620972,1.7492899,1.3928334,1.5638541.786995,4.382673,1.2009102,5.3772552-.2917636.771368-1.1576786.1441983-3.0100888-.7776057-4.0491146Z"/>
    <path class="cls-1" d="M44.3941623,122.7089746c-1.0186074-1.2256762-.9291325-2.6838372-.8386199-4.1589321.0719795-1.1729536.2157461-3.5160209,1.3806161-3.8850868,1.258956-.3988683,2.9605052,1.7456968,3.3317014,2.2135415.3368632.4245713.8160345,1.0284915,1.1124653,1.9396961.5416104,1.66483.5247638,4.5138267-1.1010761,5.2713975-1.2609581.5875482-2.9973073-.3123722-3.8850868-1.3806161Z"/>
    <path class="cls-1" d="M53.3325948,128.4858947c-1.4172245-.7289156-2.8213808-.3256983-4.2418443.0822002-1.1295108.3243556-3.3858015.9722639-3.4937702,2.1894223-.1166825,1.3154662,2.3455517,2.5120581,2.8826963,2.7730961.4874616.2368941,1.1808404.5738667,2.1346222.665874,1.742624.1681149,4.5203247-.4654814,4.9077183-2.2168224.3004487-1.3582926-.954232-2.8584732-2.1894223-3.4937702Z"/>
    <path class="cls-1" d="M53.2707266,126.5240122c-1.2828351-.9456096-1.5456851-2.3826722-1.8115891-3.8364235-.211433-1.1559833-.6338047-3.4651466.4085541-4.1028141,1.1265513-.689165,3.292775.9847239,3.7653417,1.3498896.4288574.3313894,1.0388832.8027632,1.5451985,1.6162802.9250826,1.4863455,1.592008,4.2562329.1953089,5.3816219-1.0832435.8728183-2.984746.4155946-4.1028141-.4085541Z"/>
    <path class="cls-1" d="M23.1648008,62.8893452c1.1921439-1.057656,1.3240684-2.5125907,1.4575264-3.9844217.1061156-1.1703592.3181078-3.5082412-.7776055-4.0491147-1.1842146-.5845528-3.1903276,1.2782248-3.6279655,1.6845969-.3971594.3687846-.9620973.8933509-1.3928335,1.7492898-.786995,1.5638541-1.2009104,4.382673.2917634,5.3772553,1.1576786.771368,3.0100888.1441985,4.0491147-.7776055Z"/>
  </g>
</svg>