<?xml version="1.0" encoding="UTF-8"?>
<svg id="Layer_1" data-name="Layer 1" xmlns="http://www.w3.org/2000/svg" version="1.1" viewBox="0 0 148 148">
  <defs>
    <style>
      .cls-1 {
        fill: #fefeee;
      }

      .cls-1, .cls-2, .cls-3, .cls-4 {
        stroke-width: 0px;
      }

      .cls-5 {
        fill: none;
        stroke: #ffca23;
        stroke-linecap: round;
        stroke-linejoin: round;
        stroke-width: 3px;
      }

      .cls-2 {
        fill: #ffca23;
      }

      .cls-3 {
        fill: #4e73a7;
      }

      .cls-4 {
        fill: #fcfaed;
      }
    </style>
  </defs>
  <g>
    <circle class="cls-4" cx="74" cy="74" r="73.5"/>
    <circle class="cls-3" cx="74" cy="74" r="68"/>
  </g>
  <g>
    <path class="cls-1" d="M106.8794143,84c.4754486,2.6081543,1.3393936,7.3475266-1,12-5.469635,10.8777313-23.2608032,10.9597244-32,11-9.5688171.0440979-25.0153542.1152878-31-10-3.0889587-5.2209778-2.2994537-10.8608475-2-13,1.8577766-13.2710953,15.3477173-28.0049553,33-28,17.9329987.0050354,30.6700745,15.2187271,33,28Z"/>
    <ellipse class="cls-1" cx="92.5" cy="58.5" rx="8.5" ry="10.5" transform="translate(3.3712756 122.0182689) rotate(-67.7864515)"/>
    <ellipse class="cls-1" cx="53.5" cy="58.5" rx="10.5" ry="8.5" transform="translate(-18.1457881 24.5679937) rotate(-22.2135485)"/>
    <path class="cls-2" d="M77,82c4.2169189,1.363121,4.1799088,4.143364,8,6,3.6893692,1.7930984,9.4126816,1.9647293,12-1,3.081543-3.531044.4072266-10.0129776,0-11-3.4671097-8.4034805-13.5414658-13.7331467-23-14-9.3767776-.2645493-20.1870689,4.3890457-24,13-.2713852.6128845-3.5111923,8.1695175,0,12,3.0024872,3.2755203,9.9679642,2.7642822,14,0,2.6757355-1.8344345,2.8887939-3.8583984,6-5,3.0224152-1.109024,5.9391022-.3429337,7,0Z"/>
    <circle class="cls-3" cx="59.5" cy="80.5" r="3.5"/>
    <circle class="cls-3" cx="87.5" cy="80.5" r="3.5"/>
    <ellipse class="cls-3" cx="73" cy="93" rx="4" ry="3"/>
  </g>
  <path class="cls-5" d="M128,63c4.2128601,4.8493042,4.4995117,8.0147324,4,10-1.0497742,4.1722488-5.9085159,4.4703979-7,9-1.0227127,4.2442169,2.8119049,5.7717819,2,10-.9632339,5.0162888-6.6805801,4.5331879-10,11-2.6908951,5.2423401-.132103,7.894516-3,11-3.250061,3.51931-7.0724182.6937943-13,4-6.1305771,3.419426-4.8438416,8.0045853-10,10-5.225441,2.0222321-7.3683319-2.3691177-16-2-8.1974258.3505478-9.703331,4.4582062-15,3-5.2314415-1.4402542-4.4913406-5.6480637-11-9-6.8291473-3.5169907-10.6141777-.4142685-14-4-3.5345459-3.7432327-.1774216-7.9375687-4-13-3.333271-4.4144211-7.3068695-3.1069489-9-7-1.8325748-4.2136765,2.3966637-6.7244949,1-12-1.3159466-4.9706116-5.7464695-5.2950363-7-10-.7294273-2.7378082-.2089853-6.3053436,3-11"/>
  <g>
    <circle class="cls-1" cx="132.5" cy="83.5" r="2.5"/>
    <circle class="cls-1" cx="123.5" cy="70.5" r="2.5"/>
    <circle class="cls-1" cx="118.5" cy="91.5" r="2.5"/>
    <circle class="cls-1" cx="123.5" cy="107.5" r="2.5"/>
    <circle class="cls-1" cx="108.5" cy="108.5" r="2.5"/>
    <circle class="cls-1" cx="103.5" cy="124.5" r="2.5"/>
    <circle class="cls-1" cx="87.5" cy="120.5" r="2.5"/>
    <circle class="cls-1" cx="74.5" cy="133.5" r="2.5"/>
    <circle class="cls-1" cx="60.5" cy="120.5" r="2.5"/>
    <circle class="cls-1" cx="44.5" cy="124.5" r="2.5"/>
    <circle class="cls-1" cx="39.5" cy="109.5" r="2.5"/>
    <circle class="cls-1" cx="24.5" cy="108.5" r="2.5"/>
    <circle class="cls-1" cx="29.5" cy="92.5" r="2.5"/>
    <circle class="cls-1" cx="14.5" cy="84.5" r="2.5"/>
    <circle class="cls-1" cx="24.5" cy="71.5" r="2.5"/>
  </g>
</svg>