<?xml version="1.0" encoding="UTF-8"?>
<svg id="Layer_1" data-name="Layer 1" width="100%" height="200" xmlns="http://www.w3.org/2000/svg" version="1.1" viewBox="0 0 340 90" preserveAspectRatio="none">
  <defs>
    <style>
      .cls-1 {
        fill: #4e58b7;
      }

      .cls-1, .cls-2, .cls-3 {
        stroke-width: 0px;
      }

      .cls-2 {
        fill: #5b6bea;
      }

      .cls-3 {
        fill: #35458b;
      }
    </style>
  </defs>
  <path class="cls-1" d="M84,64c-11.2299652,2.2917099-20.429882,4.4168167-27,6-9.6323624,2.3210831-17.6674728,4.4302673-19,2-.897377-1.6366348,1.7350807-6.4244232,7-16,.4221039-.7677002,1.5482063-2.7978363,1-5-.2459831-.9881248-.7434158-1.6667976-1-2-3.4408493-4.468277-12.2464066-10.0203476-12-13,.2619858-3.1680298,10.862114-4.7032585,13-5,9.3379974-1.2961311,22.5104599-2.4968605,39-2"/>
  <path class="cls-1" d="M255.1176444,28.6983115c16.4895401-.4968605,29.6620026.7038689,39,2,2.137886.2967415,12.7380142,1.8319702,13,5,.2464066,2.9796524-8.5591507,8.531723-12,13-.2565842.3332024-.7540169,1.0118752-1,2-.5482063,2.2021637.5778961,4.2322998,1,5,5.2649193,9.5755768,7.897377,14.3633652,7,16-1.3325272,2.4302673-9.3676376.3210831-19-2-6.570118-1.5831833-15.7700348-3.7082901-27-6"/>
  <path class="cls-2" d="M285,62c-43.3314362-9.6827469-80.7444305-12.5481262-109-13-63.3977051-1.0138817-108.5131607,9.6776581-118,12-1.6785431.4109001-3.0646591.7612534-4,1l-3-47C84.0230942,7.6784687,126.8927841,1.3618628,177,2c43.8538361.5584977,81.781311,6.2980776,112,13l-4,47Z"/>
  <path class="cls-3" d="M84,56v8.0443268l-30-2.0443268c5.1977501-1.4710808,10.8755112-2.8453255,17-4,4.5383987-.8556442,8.8826447-1.5078659,13-2Z"/>
  <path class="cls-3" d="M256,64c-.0566711-2.5648613-.1133423-5.1297226-.1699829-7.6945839,1.0508118.1706009,2.4789124.4058037,4.1699829.6945839,1.0485535.1790581,5.2789612.9047966,11,2,2.8190613.539669,6.1880798,1.2050285,10,2l4,1c-9.6666565.6666679-19.3333435,1.3333321-29,2Z"/>
</svg>