<?xml version="1.0" encoding="UTF-8"?>
<svg id="Layer_1" data-name="Layer 1" xmlns="http://www.w3.org/2000/svg" version="1.1" viewBox="0 0 39 42">
  <defs>
    <style>
      .cls-1 {
        fill: #8fc2a3;
        stroke-width: 0px;
      }
    </style>
  </defs>
  <path class="cls-1" d="M29,13.5v-5c0-4.4-3.6-8-8-8h-3c-4.4,0-8,3.6-8,8v5c-4.7.1-9.8,5.7-8.9,11,.6,3.8,4,6.1,6.6,7,2.7.9,5.9.6,8.3-.8v7.8l-3.4,3h13.4l-3-2.7v-8.2c2.3,1.5,5.6,1.8,8.3.9,2.6-.9,6-3.2,6.6-7,.8-5.3-4.2-10.9-8.9-11Z"/>
</svg>