<?xml version="1.0" encoding="UTF-8"?>
<svg id="Layer_1" data-name="Layer 1" xmlns="http://www.w3.org/2000/svg" version="1.1" viewBox="0 0 25 28">
  <defs>
    <style>
      .cls-1 {
        fill: #8fc2a3;
        stroke-width: 0px;
      }
    </style>
  </defs>
  <path class="cls-1" d="M18.8,9.1v-3.3c0-2.9-2.4-5.3-5.3-5.3h-2c-2.9,0-5.3,2.4-5.3,5.3v3.3c-3.1,0-6.4,3.8-5.9,7.3.4,2.5,2.6,4.1,4.4,4.6,1.8.6,3.9.4,5.5-.5v5.2l-2.2,2h8.8l-2-1.8v-5.4c1.5,1,3.7,1.2,5.5.6,1.7-.6,4-2.1,4.4-4.6.6-3.5-2.8-7.2-5.9-7.3Z"/>
</svg>