<?xml version="1.0" encoding="UTF-8"?>
<svg id="Layer_1" data-name="Layer 1" xmlns="http://www.w3.org/2000/svg" version="1.1" viewBox="0 0 98 64">
  <defs>
    <style>
      .cls-1 {
        fill: none;
        stroke: #bbdcff;
        stroke-miterlimit: 10;
        stroke-width: 6px;
      }

      .cls-2 {
        fill: #bbdcff;
      }

      .cls-2, .cls-3 {
        stroke-width: 0px;
      }

      .cls-3 {
        fill: #5977ce;
      }
    </style>
  </defs>
  <rect class="cls-3" x="3" y="5" width="92" height="29"/>
  <rect class="cls-1" x="3" y="5" width="92" height="55" rx="6" ry="6"/>
  <path class="cls-2" d="M95,57.8H3v-24.8c10.4-4.1,27.9-9.5,50-9,18,.4,32.4,4.5,42,8v25.8Z"/>
  <path class="cls-2" d="M64,27c-.3-.3-2.5-2.7-2-6,.5-3.2,3.2-5.5,6-6,4.3-.7,9.1,2.9,9,7,0,3.6-3.7,5.8-4,6l-9-1Z"/>
  <path class="cls-2" d="M35.7,27.1c.3-.3,2.5-2.7,2-6-.5-3.2-3.2-5.5-6-6-4.3-.7-9,2.9-9,7,0,3.6,3.7,5.8,4,6l9-1Z"/>
  <path class="cls-2" d="M11.6,17.6l2.6,4.2c1.1,1.9,4,1.2,4.3-.9l1-7.5c.3-2.2-2.3-3.5-3.9-2l-3.7,3.3c-.8.8-1,2-.4,2.9h0Z"/>
  <path class="cls-3" d="M48,46c1.2-.7,2.8-.7,4,0,1.4.9,1.4,2.5,2,4,1.5,3.6,6.4,6.2,11,6,4.1-.2,7.9-2.5,10-6,2.7-4.5,2.1-10.2-1-14-3.4-4.2-9.2-5-13-4-2.9.8-3.8,2.3-8,3-2.8.4-5.1.1-6,0-3-.5-4-1.4-6-2-3.5-1-8.5-.7-12,2-4,3-6.8,9.6-4,15,2.2,4.2,6.9,6.2,11,6,4-.2,8.5-2.5,10-6,.7-1.5.6-3.1,2-4Z"/>
  <circle class="cls-2" cx="64" cy="43" r="5"/>
  <circle class="cls-2" cx="37" cy="43" r="5"/>
</svg>