<svg version="1.1" id="Layer_1" xmlns="http://www.w3.org/2000/svg" xmlns:xlink="http://www.w3.org/1999/xlink" x="0px" y="0px"
	 width="100%" viewBox="0 0 1251 626" enable-background="new 0 0 1251 626" xml:space="preserve">
<path fill="#FFF8E1" opacity="1.000000" stroke="none" 
	d="
M968.120850,49.865814 
	C1016.069336,55.764481 1063.081299,63.757084 1107.339355,83.087029 
	C1135.007446,95.171181 1159.923706,111.229500 1178.511963,135.585068 
	C1201.058960,165.127670 1209.058350,199.098129 1207.352539,235.614929 
	C1205.305664,279.440002 1185.913208,316.423401 1160.565186,350.839081 
	C1151.264771,363.466644 1142.732178,376.636169 1141.789429,392.562012 
	C1141.149780,403.366974 1142.379150,414.507812 1144.370728,425.200806 
	C1150.192871,456.462250 1146.193970,486.602997 1134.879395,515.845947 
	C1128.481812,532.380981 1115.894531,544.197632 1101.429932,553.965576 
	C1079.776733,568.587952 1055.536255,577.223328 1030.531372,583.872620 
	C994.558167,593.438660 957.834290,598.731201 920.828552,602.059631 
	C816.346130,611.457214 711.613403,615.294006 606.761719,613.323853 
	C535.806702,611.990540 464.875061,608.813110 393.970276,605.629456 
	C351.043182,603.701904 308.247681,599.565735 265.884247,591.973328 
	C228.936844,585.351685 192.784760,576.303955 159.370590,558.263977 
	C121.951180,538.061707 104.209175,505.248932 98.310768,464.726044 
	C96.495804,452.256897 100.237671,440.279602 103.485725,428.385345 
	C107.376984,414.135651 110.125900,399.838806 106.571953,385.052155 
	C103.934822,374.079987 98.157295,364.813690 90.941597,356.403870 
	C71.267380,333.473724 56.235550,307.955017 48.695572,278.565765 
	C35.298321,226.346054 42.676586,177.368301 74.274063,133.195984 
	C91.083633,109.696724 115.006714,94.722977 141.045731,83.106606 
	C173.180740,68.770714 207.145172,60.838943 241.665543,55.020473 
	C287.866882,47.233154 334.518066,43.541061 381.165680,39.753422 
	C456.250916,33.656719 531.420471,29.275534 606.755737,28.186264 
	C668.770813,27.289589 730.770996,28.553606 792.594543,33.346729 
	C849.705811,37.774517 906.689697,43.846817 963.728394,49.207928 
	C965.051514,49.332291 966.360046,49.612671 968.120850,49.865814 
z"/>
</svg>