<?xml version="1.0" encoding="UTF-8"?>
<svg id="Layer_1" data-name="Layer 1" xmlns="http://www.w3.org/2000/svg" version="1.1" viewBox="0 0 512 512">
  <defs>
    <style>
      .cls-1 {
        fill: #b24a23;
      }

      .cls-1, .cls-2 {
        stroke: #b24a23;
        stroke-linecap: round;
        stroke-linejoin: round;
      }

      .cls-3 {
        stroke: #c0cfff;
        stroke-miterlimit: 10;
      }

      .cls-3, .cls-2 {
        fill: none;
      }

      .cls-4 {
        fill: #59bf97;
      }

      .cls-4, .cls-5, .cls-6 {
        stroke-width: 0px;
      }

      .cls-5 {
        fill: #abbaff;
      }

      .cls-6 {
        fill: #fffae4;
      }
    </style>
  </defs>
  <circle class="cls-5" cx="256" cy="256" r="255"/>
  <path class="cls-4" d="M220,3.5c-35.8,5.1-69.1,17.5-98.5,35.8-1,5.7-1.2,11.2-1.4,15.6-.6,14.8-1.3,28.9,7,38,13.7,15.2,44.9,8.9,63-1,5.5-3,26.3-14.4,30-34,1.9-10.4-2.6-14.3-2-35,.3-11.8,1.9-16.4,2-19.5Z"/>
  <path class="cls-4" d="M256,1c-2.8,0-5.7,0-8.5.2-1.4,3.2-2.1,6.6-1.5,9.8.8,4.5,3.7,6.9,3,12-.6,4.6-3.6,7-6,10-6.1,7.7-8.9,19.9-6,28,4.3,12.1,23.8,22.1,38,14,9.1-5.2,13.3-17.7,12-27-1.1-8-5.8-11.1-4-17,1.7-5.4,6.4-5.3,12-12,.8-.9,5.9-7.3,7-13.8-14.9-2.7-30.3-4.2-46-4.2Z"/>
  <path class="cls-4" d="M313,38c6.3-6.3,27.4-.4,31,12,1.4,4.8.4,11.4-4,15-6,5-15.7,2.2-21-2-8.4-6.6-10.8-20.2-6-25Z"/>
  <path class="cls-4" d="M154,163c-5.1-1.7,2.2-22.1-8-32-6.1-5.9-16.8-5.8-25-4-22.6,5-25.9,42.3-36,41-5.1-.7-4.7-9.7-12-12-8.6-2.7-21.7,5.9-26,17-4.8,12.5,1.4,28.6,12,36,12.9,9,26.9,1.5,63-1,24.2-1.7,28.1,4.4,41,0,1.4-.5,31.8-11.2,33-34,.7-14.5-10.5-30.2-20-30-10.8.2-16.9,20.7-22,19Z"/>
  <path class="cls-4" d="M402,127c4.4-6.5,13-8.9,20-7,8.9,2.4,16.1,11.8,14,18-1.9,5.6-10.7,6.9-18,8-7.2,1.1-13.5,2-17-2-3.9-4.4-2.2-12.3,1-17Z"/>
  <path class="cls-4" d="M462,188c3.3,1.4,6.3,4.4,6,7-.4,3.3-6.3,4.1-18,9-9.4,4-14.2,5.9-16,9-4.6,7.7,1.1,20.7,8,28,13.3,14.1,34.6,10.5,37,10,0,0,0,0,0,0,0,0,13.2-.8,24-20,2.4-4.2,4.1-8.5,5.2-12.8-3.9-26.1-11.7-51-22.9-73.9-10.3-2.3-22.8.8-30.3,7.7-7.1,6.6-6,13.2-14,17-8.5,4.1-15-.8-18,3-4.1,5.2,2.4,21.7,12,24,9.9,2.3,17.8-11.8,27-8Z"/>
  <path class="cls-4" d="M355,178c8.5,5.6,11,22,11,22h0c17.1,42,28,44,28,44,7.9,1.4,13.3-4.7,16-2,3.4,3.5-1.3,17.8-11,24-18.2,11.6-48.1-9.2-52-12-1.6-1.1-38.3-27.4-32-54,2.1-8.7,8-14.3,10-16,8.1-7,21.9-11.3,30-6Z"/>
  <g>
    <circle class="cls-3" cx="256.5" cy="256.5" r="215"/>
    <circle class="cls-3" cx="256.5" cy="256.5" r="172"/>
    <line class="cls-3" x1="256" y1="1" x2="256" y2="511"/>
    <line class="cls-3" x1="168.8" y1="16.4" x2="343.2" y2="495.6"/>
    <line class="cls-3" x1="92.1" y1="60.7" x2="419.9" y2="451.3"/>
    <line class="cls-3" x1="35.2" y1="128.5" x2="476.8" y2="383.5"/>
    <line class="cls-3" x1="4.9" y1="211.7" x2="507.1" y2="300.3"/>
    <line class="cls-3" x1="4.9" y1="300.3" x2="507.1" y2="211.7"/>
    <line class="cls-3" x1="35.2" y1="383.5" x2="476.8" y2="128.5"/>
    <line class="cls-3" x1="92.1" y1="451.3" x2="419.9" y2="60.7"/>
    <line class="cls-3" x1="168.8" y1="495.6" x2="343.2" y2="16.4"/>
    <line class="cls-3" x1="256" y1="511" x2="256" y2="1"/>
  </g>
  <circle class="cls-6" cx="256.5" cy="41.5" r="10.5"/>
  <circle class="cls-6" cx="467.5" cy="218.5" r="10.5"/>
  <path class="cls-6" d="M260,44c23.1,3.5,85.4,16.1,139,69,38.1,37.6,54.8,78.6,62,101,3-.3,6-.7,9-1-5.9-22.8-19.5-61.5-52-98-58.8-66-136.6-76.8-158-79v8Z"/>
  <line class="cls-2" x1="468" y1="218" x2="485.5" y2="218"/>
  <path class="cls-1" d="M485.5,218.5c-1.1,1.3-2.3,3.3-3,6-.6,2.4-.3,4.9-1,5-.1,0-.3,0-1-1-1.3-1.9-2-2.8-2-4,0-1.5.8-1.7,1-4,0-.8,0-1.5,0-2"/>
</svg>