<?xml version="1.0" encoding="UTF-8"?>
<svg xmlns="http://www.w3.org/2000/svg" version="1.1" viewBox="0 0 16 16">
  <defs>
    <style>
      .cls-1 {
        fill: #20724a;
      }
    </style>
  </defs>
  <!-- Generator: Adobe Illustrator 28.6.0, SVG Export Plug-In . SVG Version: 1.2.0 Build 709)  -->
  <g>
    <g id="Layer_1">
      <g id="Layer_1-2" data-name="Layer_1">
        <path class="cls-1" d="M13.2130278,5.7669853c-.258721-.1162515-.4728864-.2122326-.6613831-.2485349l.000061-.0000543,2.8539265-2.6634088-1.4646117-1.455999-1.9413433,3.8826933c0-.0000068.0000136-.0000271.0000136-.0000339.1027492-.3185693-.7020799-1.7566918-2.1839985-2.4266604-1.5111408-.6831997-3.3562589-.4003156-4.6106589.4853307-.9855812.6958408-1.4489053,1.6525455-1.9413297,2.6693292-.5277976,1.0898088-.3130083,1.094739-.9706682,2.6693292-.7178948,1.7188093-1.6589542,3.3207296-1.6986677,3.3973355.0258178.0138889,1.6799639,1.0669206,3.5489534,1.733512.6293871.2244803,1.1685169.3642642,1.547043.4504797.094245.0076294,2.6310127.5595223,4.3679969.2426688.0288493-.0052558.0576578-.0124715.0865003-.0182902-1.1420955-.1373018-2.02783-1.1079497-2.02783-2.2870393,0-1.2731989,1.0321306-2.3053295,2.3053295-2.3053295s2.3053295,1.0321306,2.3053295,2.3053295c0,.5132509-.1697929.98571-.4534297,1.3687866,1.8376718-1.2254016,3.2038949-3.350196,2.8800969-5.130115-.2486502-1.3668538-1.4814574-2.4627186-1.9413297-2.6693292Z"/>
      </g>
    </g>
  </g>
</svg>